<svg width="24" height="24" viewBox="0 0 24 24" fill="none" xmlns="http://www.w3.org/2000/svg">
<path d="M12.3711 11.1041L13.814 9.66115L12.3711 4.13025V11.1041Z" fill="black"/>
<path d="M9.08199 20.0126C9.70699 20.2417 10.3569 20.3959 11.0182 20.4721L9.8068 15.8282L7.35069 17.1512C7.20645 17.2286 7.02852 17.2024 6.91277 17.0867C6.79702 16.9709 6.77077 16.793 6.84818 16.6487L8.17125 14.1926L3.52734 12.9813C3.60347 13.6425 3.75769 14.2925 3.9868 14.9174L4.54349 14.687C4.73288 14.6086 4.94996 14.6985 5.02836 14.8879C5.10676 15.0773 5.01679 15.2944 4.8274 15.3728L4.27405 15.6022C4.64048 16.3914 5.12643 17.1195 5.71476 17.7606L5.79975 17.6756C5.94537 17.535 6.17685 17.537 6.32 17.6802C6.46316 17.8233 6.46517 18.0548 6.32452 18.2004L6.23954 18.2854C6.88066 18.8738 7.60872 19.3597 8.39801 19.7261L8.62736 19.1728C8.70576 18.9834 8.92285 18.8934 9.11224 18.9718C9.30163 19.0502 9.3916 19.2673 9.3132 19.4567L9.08199 20.0126Z" fill="black"/>
<path d="M12.3711 19.8697L13.814 14.3388L12.3711 12.8959V19.8697Z" fill="black"/>
<path d="M4.68526 9.34128C4.6366 9.34133 4.58842 9.33174 4.54349 9.31307L3.9868 9.0826C3.75777 9.7076 3.60355 10.3575 3.52734 11.0188L8.17125 9.80741L6.84892 7.3513C6.77152 7.20706 6.79776 7.02913 6.91351 6.91338C7.02926 6.79763 7.20719 6.77138 7.35143 6.84879L9.80754 8.17186L11.0189 3.52795C10.3576 3.60408 9.70771 3.7583 9.08273 3.98741L9.3132 4.5441C9.36392 4.66661 9.34542 4.80688 9.26468 4.91205C9.18394 5.01723 9.05322 5.07135 8.92176 5.05401C8.7903 5.03667 8.67808 4.95052 8.62736 4.82801L8.39801 4.27466C7.60874 4.64109 6.88069 5.12704 6.23954 5.71537L6.32452 5.80036C6.421 5.89354 6.45969 6.03153 6.42573 6.16128C6.39176 6.29104 6.29043 6.39237 6.16067 6.42634C6.03092 6.4603 5.89293 6.42161 5.79975 6.32513L5.71476 6.24015C5.12639 6.88128 4.64044 7.60933 4.27405 8.39862L4.8274 8.62797C4.99106 8.6957 5.08405 8.86964 5.04947 9.04335C5.01489 9.21706 4.86238 9.34213 4.68526 9.34202V9.34128Z" fill="black"/>
<path d="M11.1047 12.3712H4.13086L9.66176 13.8141L11.1047 12.3712Z" fill="black"/>
<path d="M15.9111 8.08905L14.3857 8.9111L14.5312 9.4689L15.089 9.61438L15.9111 8.08905Z" fill="black"/>
<path d="M8.08887 15.9109L9.6142 15.0889L9.46872 14.5311L8.91091 14.3856L8.08887 15.9109Z" fill="black"/>
<path d="M15.9111 15.9109L15.089 14.3856L14.5312 14.5311L14.3857 15.0889L15.9111 15.9109Z" fill="black"/>
<path d="M19.4569 14.687L20.0135 14.9174C20.2426 14.2924 20.3968 13.6425 20.473 12.9813L15.8284 14.1926L17.1514 16.6487C17.2288 16.793 17.2026 16.9709 17.0868 17.0867C16.9711 17.2024 16.7932 17.2286 16.6489 17.1512L14.1928 15.8282L12.9814 20.4721C13.6427 20.396 14.2926 20.2417 14.9176 20.0126L14.6871 19.4559C14.6087 19.2665 14.6987 19.0495 14.8881 18.9711C15.0775 18.8927 15.2946 18.9826 15.373 19.172L15.6023 19.7254C16.3916 19.3589 17.1197 18.873 17.7608 18.2847L17.6758 18.1997C17.5352 18.054 17.5372 17.8226 17.6803 17.6794C17.8235 17.5363 18.055 17.5343 18.2006 17.6749L18.2856 17.7599C18.874 17.1188 19.3599 16.3907 19.7263 15.6014L19.1729 15.3721C18.9836 15.2937 18.8936 15.0766 18.972 14.8872C19.0504 14.6978 19.2675 14.6078 19.4569 14.6862V14.687Z" fill="black"/>
<path d="M14.3394 13.8141L19.8703 12.3712H12.8965L14.3394 13.8141Z" fill="black"/>
<path d="M12.583 2L12.7823 2.76378C13.7304 2.84053 14.6608 3.06428 15.5401 3.42698C15.5439 3.42698 15.5476 3.42698 15.5509 3.42921C15.5542 3.43143 15.5572 3.43403 15.5609 3.43589C16.6828 3.89972 17.7019 4.58081 18.5596 5.43997C19.4187 6.29776 20.0997 7.31684 20.5637 8.43867C20.5656 8.44238 20.5689 8.44461 20.5704 8.44869C20.5719 8.45277 20.5704 8.45574 20.5726 8.45908C20.935 9.33859 21.1584 10.2691 21.2347 11.2173L21.9985 11.4166C21.6818 6.35335 17.6462 2.31729 12.583 2Z" fill="black"/>
<path d="M11.4173 22L11.218 21.2362C10.2701 21.1598 9.33984 20.9364 8.46057 20.5741C8.45686 20.5741 8.45277 20.5741 8.44943 20.5719C8.44609 20.5697 8.44313 20.5671 8.43941 20.5652C7.31751 20.1014 6.2984 19.4203 5.44071 18.5611C4.58319 17.7047 3.90315 16.6874 3.4396 15.5676C3.43621 15.5627 3.43311 15.5576 3.43032 15.5524C3.43032 15.5491 3.43032 15.5453 3.42809 15.542C3.06569 14.6625 2.84232 13.732 2.766 12.7838L2 12.5826C2.31643 17.6468 6.35314 21.6835 11.4173 22Z" fill="black"/>
<path d="M21.2364 12.7819C21.1597 13.73 20.9359 14.6604 20.5732 15.5398C20.5732 15.5435 20.5732 15.5472 20.571 15.5505C20.5688 15.5539 20.5647 15.5602 20.5621 15.5654C20.0985 16.6854 19.4183 17.7028 18.5606 18.5593C17.7029 19.4182 16.6839 20.0993 15.5623 20.5633C15.5582 20.5652 15.556 20.5685 15.5519 20.57C15.5478 20.5715 15.5448 20.57 15.5411 20.5723C14.6618 20.9347 13.7313 21.1581 12.7833 21.2343L12.584 21.9981C17.6471 21.6812 21.6829 17.6457 22.0002 12.5826L21.2364 12.7819Z" fill="black"/>
<path d="M2 11.4173L2.76378 11.218C2.84053 10.2699 3.06428 9.33951 3.42698 8.46017C3.42698 8.45646 3.42698 8.45275 3.42921 8.44941C3.43143 8.44607 3.43403 8.4431 3.43589 8.43939C3.89972 7.31749 4.58081 6.29838 5.43997 5.44069C6.29769 4.58173 7.31663 3.90067 8.4383 3.43661C8.44238 3.43661 8.44461 3.43141 8.44869 3.42993C8.45277 3.42844 8.45574 3.42993 8.45908 3.4277C9.33859 3.06529 10.2691 2.84192 11.2173 2.76561L11.4166 2.00183C6.35335 2.31852 2.31729 6.3541 2 11.4173Z" fill="black"/>
<path d="M14.9176 3.98741C14.2926 3.75838 13.6427 3.60416 12.9814 3.52795L14.1928 8.17186L16.6489 6.84879C16.7932 6.77138 16.9711 6.79763 17.0868 6.91338C17.2026 7.02913 17.2288 7.20706 17.1514 7.3513L15.8284 9.80741L20.4723 11.0188C20.3961 10.3575 20.2419 9.70757 20.0128 9.0826L19.4561 9.31307C19.2667 9.39147 19.0496 9.3015 18.9712 9.11211C18.8928 8.92272 18.9828 8.70563 19.1722 8.62723L19.7256 8.39787C19.3591 7.6086 18.8732 6.88056 18.2848 6.2394L18.1999 6.32439C18.0542 6.46504 17.8228 6.46303 17.6796 6.31987C17.5364 6.17671 17.5344 5.94524 17.6751 5.79962L17.7601 5.71463C17.1189 5.12626 16.3909 4.64031 15.6016 4.27392L15.3722 4.82727C15.2938 5.01666 15.0768 5.10663 14.8874 5.02823C14.698 4.94983 14.608 4.73275 14.6864 4.54336L14.9176 3.98741Z" fill="black"/>
<path d="M9.46872 9.4689L9.6142 8.9111L8.08887 8.08905L8.91091 9.61438L9.46872 9.4689Z" fill="black"/>
<path d="M9.6626 10.1859L8.81903 10.406L8.809 10.4086L4.13281 11.6289H11.1048L9.6626 10.1859Z" fill="black"/>
<path d="M11.6285 12.8959L10.1855 14.3388L11.6285 19.8697V12.8959Z" fill="black"/>
<path d="M11.6285 11.1041V4.13025L10.1855 9.66115L11.6285 11.1041Z" fill="black"/>
<path d="M12.8965 11.6289H19.8703L15.1923 10.4086L15.1823 10.406L14.3387 10.1859L12.8965 11.6289Z" fill="black"/>
</svg>
