<svg width="96" height="96" viewBox="0 0 96 96" fill="none" xmlns="http://www.w3.org/2000/svg">
<rect width="96" height="96" rx="48" fill="black"/>
<path d="M48.4951 46.8055L50.419 44.8816L48.4951 37.5071V46.8055Z" fill="white"/>
<path d="M44.1103 58.6835C44.9436 58.9889 45.8102 59.1945 46.6919 59.2961L45.0767 53.1042L41.8019 54.8683C41.6096 54.9715 41.3723 54.9365 41.218 54.7822C41.0637 54.6279 41.0287 54.3906 41.1319 54.1983L42.896 50.9235L36.7041 49.3083C36.8056 50.19 37.0112 51.0566 37.3167 51.8899L38.059 51.5826C38.3115 51.4781 38.6009 51.598 38.7055 51.8506C38.81 52.1031 38.69 52.3925 38.4375 52.4971L37.6997 52.8029C38.1883 53.8552 38.8362 54.826 39.6207 55.6808L39.734 55.5675C39.9281 55.38 40.2368 55.3827 40.4276 55.5735C40.6185 55.7644 40.6212 56.0731 40.4337 56.2672L40.3204 56.3805C41.1752 57.165 42.1459 57.813 43.1983 58.3015L43.5041 57.5637C43.6087 57.3112 43.8981 57.1912 44.1506 57.2957C44.4031 57.4003 44.5231 57.6897 44.4186 57.9422L44.1103 58.6835Z" fill="white"/>
<path d="M48.4951 58.493L50.419 51.1185L48.4951 49.1946V58.493Z" fill="white"/>
<path d="M38.247 44.4552C38.1821 44.4553 38.1179 44.4425 38.058 44.4176L37.3157 44.1103C37.0104 44.9436 36.8047 45.8102 36.7031 46.6919L42.895 45.0767L41.1319 41.8019C41.0287 41.6096 41.0637 41.3723 41.218 41.218C41.3724 41.0637 41.6096 41.0287 41.8019 41.1319L45.0767 42.896L46.6919 36.7041C45.8102 36.8056 44.9436 37.0112 44.1103 37.3167L44.4176 38.059C44.4852 38.2223 44.4606 38.4093 44.3529 38.5496C44.2453 38.6898 44.071 38.762 43.8957 38.7388C43.7204 38.7157 43.5708 38.6009 43.5031 38.4375L43.1973 37.6997C42.145 38.1883 41.1743 38.8362 40.3194 39.6207L40.4327 39.734C40.5613 39.8582 40.6129 40.0422 40.5676 40.2152C40.5224 40.3882 40.3872 40.5233 40.2142 40.5686C40.0412 40.6139 39.8572 40.5623 39.733 40.4337L39.6197 40.3204C38.8352 41.1752 38.1873 42.1459 37.6987 43.1983L38.4365 43.5041C38.6547 43.5944 38.7787 43.8263 38.7326 44.058C38.6865 44.2896 38.4832 44.4563 38.247 44.4562V44.4552Z" fill="white"/>
<path d="M46.8063 48.4949H37.5078L44.8823 50.4188L46.8063 48.4949Z" fill="white"/>
<path d="M53.2154 42.7854L51.1816 43.8815L51.3756 44.6252L52.1194 44.8192L53.2154 42.7854Z" fill="white"/>
<path d="M42.7852 53.2147L44.8189 52.1186L44.625 51.3749L43.8812 51.1809L42.7852 53.2147Z" fill="white"/>
<path d="M53.2154 53.2147L52.1194 51.1809L51.3756 51.3749L51.1816 52.1186L53.2154 53.2147Z" fill="white"/>
<path d="M57.9425 51.5826L58.6847 51.8899C58.9901 51.0566 59.1957 50.19 59.2973 49.3083L53.1045 50.9235L54.8686 54.1983C54.9718 54.3906 54.9368 54.6279 54.7824 54.7822C54.6281 54.9365 54.3909 54.9715 54.1986 54.8683L50.9237 53.1042L49.3086 59.2961C50.1903 59.1946 51.0569 58.989 51.8901 58.6835L51.5829 57.9412C51.4783 57.6887 51.5983 57.3993 51.8508 57.2947C52.1033 57.1902 52.3928 57.3102 52.4973 57.5627L52.8031 58.3005C53.8555 57.8119 54.8262 57.164 55.6811 56.3795L55.5678 56.2662C55.3802 56.0721 55.3829 55.7634 55.5738 55.5726C55.7647 55.3817 56.0733 55.379 56.2675 55.5665L56.3808 55.6798C57.1653 54.825 57.8132 53.8543 58.3017 52.8019L57.5639 52.4961C57.3114 52.3915 57.1914 52.1021 57.296 51.8496C57.4005 51.5971 57.69 51.4771 57.9425 51.5816V51.5826Z" fill="white"/>
<path d="M51.1192 50.4188L58.4938 48.4949H49.1953L51.1192 50.4188Z" fill="white"/>
<path d="M48.7773 34.6667L49.0431 35.6851C50.3072 35.7875 51.5477 36.0858 52.7202 36.5694C52.7251 36.5694 52.7301 36.5694 52.7345 36.5724C52.739 36.5753 52.743 36.5788 52.7479 36.5813C54.2438 37.1997 55.6026 38.1078 56.7462 39.2534C57.8916 40.3971 58.7997 41.7559 59.4183 43.2516C59.4208 43.2566 59.4252 43.2596 59.4272 43.265C59.4292 43.2704 59.4272 43.2744 59.4302 43.2789C59.9134 44.4515 60.2112 45.6922 60.3129 46.9565L61.3313 47.2222C60.9091 40.4712 55.5283 35.0898 48.7773 34.6667Z" fill="white"/>
<path d="M47.2234 61.3333L46.9577 60.3149C45.6938 60.2131 44.4534 59.9152 43.2811 59.4321C43.2761 59.4321 43.2707 59.4321 43.2662 59.4292C43.2618 59.4262 43.2578 59.4227 43.2529 59.4203C41.757 58.8018 40.3982 57.8937 39.2546 56.7482C38.1112 55.6062 37.2045 54.2499 36.5865 52.7568C36.5819 52.7503 36.5778 52.7435 36.5741 52.7365C36.5741 52.7321 36.5741 52.7271 36.5711 52.7227C36.0879 51.55 35.7901 50.3093 35.6883 49.0451L34.667 48.7769C35.0889 55.5291 40.4712 60.9114 47.2234 61.3333Z" fill="white"/>
<path d="M60.3159 49.0426C60.2135 50.3067 59.9152 51.5473 59.4316 52.7197C59.4316 52.7246 59.4316 52.7296 59.4286 52.7341C59.4257 52.7385 59.4202 52.7469 59.4168 52.7538C58.7987 54.2471 57.8918 55.6037 56.7481 56.7457C55.6045 57.891 54.2459 58.799 52.7503 59.4178C52.7449 59.4203 52.7419 59.4247 52.7365 59.4267C52.7311 59.4287 52.7271 59.4267 52.7221 59.4297C51.5497 59.9129 50.3091 60.2107 49.045 60.3125L48.7793 61.3308C55.5301 60.9083 60.9112 55.5276 61.3343 48.7769L60.3159 49.0426Z" fill="white"/>
<path d="M34.667 47.2232L35.6854 46.9574C35.7877 45.6933 36.086 44.4528 36.5696 43.2803C36.5696 43.2754 36.5696 43.2704 36.5726 43.266C36.5756 43.2615 36.579 43.2575 36.5815 43.2526C37.1999 41.7567 38.1081 40.3979 39.2536 39.2543C40.3972 38.1091 41.7558 37.201 43.2514 36.5822C43.2568 36.5822 43.2598 36.5753 43.2652 36.5733C43.2707 36.5713 43.2746 36.5733 43.2791 36.5703C44.4518 36.0871 45.6925 35.7893 46.9567 35.6876L47.2224 34.6692C40.4715 35.0914 35.09 40.4722 34.667 47.2232Z" fill="white"/>
<path d="M51.8901 37.3167C51.0568 37.0113 50.1903 36.8057 49.3086 36.7041L50.9237 42.896L54.1986 41.1319C54.3909 41.0287 54.6281 41.0637 54.7824 41.218C54.9368 41.3723 54.9718 41.6096 54.8686 41.8019L53.1045 45.0767L59.2963 46.6919C59.1948 45.8102 58.9892 44.9436 58.6837 44.1103L57.9415 44.4176C57.689 44.5221 57.3995 44.4022 57.295 44.1496C57.1905 43.8971 57.3104 43.6077 57.5629 43.5031L58.3007 43.1973C57.8122 42.145 57.1642 41.1742 56.3798 40.3194L56.2665 40.4327C56.0723 40.6202 55.7637 40.6175 55.5728 40.4267C55.3819 40.2358 55.3792 39.9272 55.5668 39.733L55.6801 39.6197C54.8253 38.8352 53.8545 38.1872 52.8021 37.6987L52.4963 38.4365C52.3918 38.689 52.1023 38.809 51.8498 38.7045C51.5973 38.5999 51.4773 38.3105 51.5819 38.058L51.8901 37.3167Z" fill="white"/>
<path d="M44.625 44.6252L44.8189 43.8815L42.7852 42.7854L43.8812 44.8192L44.625 44.6252Z" fill="white"/>
<path d="M44.8828 45.5813L43.758 45.8747L43.7447 45.8782L37.5098 47.5052H46.8057L44.8828 45.5813Z" fill="white"/>
<path d="M47.506 49.1946L45.582 51.1185L47.506 58.493V49.1946Z" fill="white"/>
<path d="M47.506 46.8055V37.5071L45.582 44.8816L47.506 46.8055Z" fill="white"/>
<path d="M49.1953 47.5052H58.4938L52.2564 45.8782L52.243 45.8747L51.1182 45.5813L49.1953 47.5052Z" fill="white"/>
</svg>
