<svg width="24" height="24" viewBox="0 0 24 24" fill="none" xmlns="http://www.w3.org/2000/svg">
<rect width="24" height="24" fill="white" fill-opacity="0.01"/>
<path d="M15.0582 4.19067H20.0488V5.92648H15.0582V4.19067ZM10.0575 11.0586C11.1607 10.3019 11.7386 9.15063 11.7386 7.37179C11.7386 3.85356 9.91245 3 7.80363 3H2V20.6593H7.96623C10.2026 20.6593 12.3014 19.1172 12.3014 15.5308C12.3014 13.3144 11.571 11.6754 10.0575 11.0586ZM4.70669 6.01255H7.24578C8.22389 6.01255 9.10194 6.40347 9.10194 8.03168C9.10194 9.53078 8.41901 10.1333 7.45091 10.1333H4.70669V6.01255ZM7.596 17.6611H4.70419V12.798H7.65353C8.84428 12.798 9.59725 13.5117 9.59725 15.3192C9.59725 17.098 8.69919 17.6611 7.596 17.6611ZM22 14.4513C22 10.6677 20.4565 7.51524 17.6648 7.51524C14.9506 7.51524 13.1044 10.4453 13.1044 14.2863C13.1044 18.2672 14.853 21 17.6648 21C19.7936 21 21.172 19.6264 21.8349 16.6964H19.676C19.4409 17.7902 18.4853 18.364 17.7423 18.364C16.3064 18.364 15.556 17.159 15.556 15.1112H21.9825C21.99 14.8996 22 14.6772 22 14.4513ZM15.556 12.8948C15.6335 11.2128 16.4165 10.162 17.5872 10.162C18.818 10.162 19.4334 11.1984 19.541 12.8948H15.556Z" fill="black"/>
</svg>
