<svg width="96" height="96" viewBox="0 0 96 96" fill="none" xmlns="http://www.w3.org/2000/svg">
<rect width="96" height="96" rx="48" fill="#F6F6F6"/>
<rect width="32" height="32" transform="translate(32 32)" fill="white" fill-opacity="0.01"/>
<path d="M52.0779 37.5876H58.732V39.902H52.0779V37.5876ZM45.4104 46.7448C46.8813 45.7358 47.6518 44.2008 47.6518 41.829C47.6518 37.1381 45.2169 36 42.4052 36H34.667V59.5457H42.622C45.6038 59.5457 48.4022 57.4895 48.4022 52.7077C48.4022 49.7525 47.4283 47.5672 45.4104 46.7448ZM38.2759 40.0167H41.6614C42.9655 40.0167 44.1362 40.538 44.1362 42.7089C44.1362 44.7077 43.2257 45.5111 41.9349 45.5111H38.2759V40.0167ZM42.1283 55.5481H38.2726V49.064H42.205C43.7927 49.064 44.7967 50.0155 44.7967 52.4256C44.7967 54.7974 43.5992 55.5481 42.1283 55.5481ZM61.3337 51.2684C61.3337 46.2236 59.2757 42.0203 55.5534 42.0203C51.9345 42.0203 49.4729 45.9271 49.4729 51.0484C49.4729 56.3562 51.8044 60 55.5534 60C58.3918 60 60.2296 58.1686 61.1135 54.2618H58.2351C57.9215 55.7203 56.6474 56.4854 55.6568 56.4854C53.7422 56.4854 52.7416 54.8787 52.7416 52.1482H61.3103C61.3203 51.8661 61.3337 51.5696 61.3337 51.2684ZM52.7416 49.1931C52.845 46.9504 53.889 45.5493 55.45 45.5493C57.091 45.5493 57.9115 46.9313 58.0549 49.1931H52.7416Z" fill="black"/>
</svg>
