<svg width="25" height="25" viewBox="0 0 25 25" fill="none" xmlns="http://www.w3.org/2000/svg">
<path d="M8.13415 2.6741C6.83127 2.34452 5.46574 2.48434 4.39587 3.08107C3.30596 3.6878 2.54177 4.76391 2.50418 6.20331C2.44655 8.45292 2.96896 11.4715 5.04356 15.0145C7.09184 18.5138 9.3531 20.6111 11.2298 21.857C12.4149 22.6447 13.724 22.6659 14.8428 22.1528C15.9452 21.6472 16.8397 20.6373 17.3045 19.3851C17.4201 19.0737 17.4666 18.741 17.4407 18.4099C17.4147 18.0788 17.3169 17.7573 17.1541 17.4676L15.959 15.3428C15.5916 14.6889 15.0003 14.1885 14.2932 13.9331C13.5862 13.6778 12.8105 13.6845 12.108 13.9521L11.2736 14.2705C10.869 14.424 10.4969 14.3528 10.2864 14.1456C9.5786 13.4528 9.07248 12.5127 8.84322 11.499C8.77056 11.1794 8.91839 10.8024 9.27167 10.5365L10.0246 9.96973C10.6333 9.51202 11.0535 8.84874 11.2064 8.1043C11.3593 7.35986 11.2344 6.5854 10.8552 5.92617L9.63748 3.81014C9.47616 3.52999 9.25994 3.28505 9.00167 3.08988C8.74341 2.89471 8.44838 2.75331 8.13415 2.6741V2.6741ZM3.75696 6.23702C3.78201 5.27076 4.2731 4.5804 5.00723 4.17092C5.7614 3.75022 6.79118 3.62163 7.82597 3.88379C7.9776 3.92196 8.11996 3.99015 8.24458 4.0843C8.3692 4.17846 8.47352 4.29665 8.55133 4.43184L9.76777 6.54787C9.99529 6.94324 10.0703 7.40773 9.97875 7.85428C9.88719 8.30082 9.63534 8.69876 9.27042 8.97351L8.5175 9.54028C7.86606 10.0296 7.41506 10.8686 7.62052 11.7737C7.89863 12.9996 8.51374 14.1618 9.40823 15.037C10.0622 15.6761 10.9942 15.7136 11.7208 15.4365L12.5552 15.1181C12.9767 14.9573 13.4423 14.9531 13.8667 15.1062C14.2911 15.2593 14.646 15.5596 14.8666 15.952L16.0605 18.0781C16.2108 18.3452 16.2359 18.6648 16.1294 18.9519C15.7661 19.9319 15.0833 20.6672 14.3191 21.018C13.5712 21.3613 12.7256 21.3514 11.9251 20.8183C10.2075 19.6773 8.07903 17.721 6.1247 14.3853C4.16912 11.0396 3.70559 8.25068 3.75821 6.23702H3.75696ZM15.9114 2.60668C15.7662 2.52623 15.5949 2.50654 15.4351 2.55196C15.2753 2.59738 15.1402 2.70418 15.0595 2.84887C14.9788 2.99356 14.959 3.16429 15.0046 3.32349C15.0502 3.48269 15.1573 3.61733 15.3025 3.69778L15.7836 3.96494C17.2864 4.79688 18.5648 5.97904 19.5095 7.4104C20.4541 8.84175 21.0369 10.4797 21.2081 12.1844L21.2482 12.5776C21.2529 12.6618 21.2747 12.7441 21.3123 12.8197C21.3498 12.8952 21.4023 12.9624 21.4666 13.0172C21.5309 13.072 21.6057 13.1132 21.6864 13.1384C21.7671 13.1636 21.8521 13.1722 21.9363 13.1638C22.0205 13.1554 22.1021 13.13 22.1761 13.0893C22.2502 13.0486 22.3152 12.9933 22.3673 12.9269C22.4194 12.8605 22.4574 12.7842 22.4791 12.7027C22.5008 12.6212 22.5057 12.5362 22.4935 12.4528L22.4546 12.0608C22.2635 10.1552 21.6121 8.32413 20.5562 6.72404C19.5003 5.12396 18.0712 3.80248 16.3912 2.87259L15.9114 2.60668V2.60668ZM14.4431 5.95239C14.5287 5.81053 14.6673 5.70836 14.8285 5.66832C14.9896 5.62829 15.1602 5.65368 15.3025 5.73891L15.4579 5.83129C16.4691 6.43546 17.3366 7.25125 18.0005 8.22227C18.6643 9.1933 19.1086 10.2964 19.3026 11.4553L19.3578 11.7886C19.3735 11.8704 19.3727 11.9544 19.3554 12.0359C19.3381 12.1173 19.3046 12.1944 19.2569 12.2628C19.2092 12.3311 19.1483 12.3893 19.0778 12.4338C19.0072 12.4783 18.9284 12.5083 18.846 12.5221C18.7636 12.5358 18.6793 12.533 18.5981 12.5138C18.5168 12.4946 18.4402 12.4594 18.3728 12.4102C18.3054 12.3611 18.2485 12.299 18.2055 12.2276C18.1625 12.1562 18.1343 12.077 18.1225 11.9946L18.0662 11.6613C17.9022 10.6809 17.5266 9.74758 16.9654 8.92594C16.4041 8.1043 15.6704 7.41389 14.8152 6.90242L14.6599 6.80879C14.5893 6.76666 14.5277 6.7111 14.4787 6.64526C14.4296 6.57942 14.3941 6.5046 14.3741 6.42507C14.3541 6.34554 14.35 6.26286 14.362 6.18176C14.3741 6.10065 14.4021 6.02271 14.4444 5.95239H14.4431Z" fill="black"/>
</svg>
