<svg width="138" height="50" viewBox="0 0 138 50" fill="none" xmlns="http://www.w3.org/2000/svg">
<rect width="50" height="50" rx="25" fill="black"/>
<path d="M15.9315 25.4C15.9315 23.6147 16.3302 22.02 17.1275 20.616C17.9422 19.1947 19.0428 18.094 20.4295 17.314C21.8335 16.5167 23.4022 16.118 25.1355 16.118C27.1635 16.118 28.9402 16.638 30.4655 17.678C31.9908 18.718 33.0568 20.1567 33.6635 21.994H29.4775C29.0615 21.1273 28.4722 20.4773 27.7095 20.044C26.9642 19.6107 26.0975 19.394 25.1095 19.394C24.0522 19.394 23.1075 19.6453 22.2755 20.148C21.4608 20.6333 20.8195 21.3267 20.3515 22.228C19.9008 23.1293 19.6755 24.1867 19.6755 25.4C19.6755 26.596 19.9008 27.6533 20.3515 28.572C20.8195 29.4733 21.4608 30.1753 22.2755 30.678C23.1075 31.1633 24.0522 31.406 25.1095 31.406C26.0975 31.406 26.9642 31.1893 27.7095 30.756C28.4722 30.3053 29.0615 29.6467 29.4775 28.78H33.6635C33.0568 30.6347 31.9908 32.082 30.4655 33.122C28.9575 34.1447 27.1808 34.656 25.1355 34.656C23.4022 34.656 21.8335 34.266 20.4295 33.486C19.0428 32.6887 17.9422 31.588 17.1275 30.184C16.3302 28.78 15.9315 27.1853 15.9315 25.4Z" fill="white"/>
<path d="M53.4325 24.8C53.4325 22.6027 53.9232 20.64 54.9045 18.912C55.9072 17.1627 57.2618 15.808 58.9685 14.848C60.6965 13.8667 62.6272 13.376 64.7605 13.376C67.2565 13.376 69.4432 14.016 71.3205 15.296C73.1978 16.576 74.5098 18.3467 75.2565 20.608H70.1045C69.5925 19.5413 68.8672 18.7413 67.9285 18.208C67.0112 17.6747 65.9445 17.408 64.7285 17.408C63.4272 17.408 62.2645 17.7173 61.2405 18.336C60.2378 18.9333 59.4485 19.7867 58.8725 20.896C58.3178 22.0053 58.0405 23.3067 58.0405 24.8C58.0405 26.272 58.3178 27.5733 58.8725 28.704C59.4485 29.8133 60.2378 30.6773 61.2405 31.296C62.2645 31.8933 63.4272 32.192 64.7285 32.192C65.9445 32.192 67.0112 31.9253 67.9285 31.392C68.8672 30.8373 69.5925 30.0267 70.1045 28.96H75.2565C74.5098 31.2427 73.1978 33.024 71.3205 34.304C69.4645 35.5627 67.2778 36.192 64.7605 36.192C62.6272 36.192 60.6965 35.712 58.9685 34.752C57.2618 33.7707 55.9072 32.416 54.9045 30.688C53.9232 28.96 53.4325 26.9973 53.4325 24.8ZM77.931 27.072C77.931 25.28 78.283 23.6907 78.987 22.304C79.7123 20.9173 80.683 19.8507 81.899 19.104C83.1363 18.3573 84.5123 17.984 86.027 17.984C87.3497 17.984 88.5017 18.2507 89.483 18.784C90.4857 19.3173 91.2857 19.9893 91.883 20.8V18.272H96.395V36H91.883V33.408C91.307 34.24 90.507 34.9333 89.483 35.488C88.4803 36.0213 87.3177 36.288 85.995 36.288C84.5017 36.288 83.1363 35.904 81.899 35.136C80.683 34.368 79.7123 33.2907 78.987 31.904C78.283 30.496 77.931 28.8853 77.931 27.072ZM91.883 27.136C91.883 26.048 91.6697 25.12 91.243 24.352C90.8163 23.5627 90.2403 22.9653 89.515 22.56C88.7897 22.1333 88.011 21.92 87.179 21.92C86.347 21.92 85.579 22.1227 84.875 22.528C84.171 22.9333 83.595 23.5307 83.147 24.32C82.7203 25.088 82.507 26.0053 82.507 27.072C82.507 28.1387 82.7203 29.0773 83.147 29.888C83.595 30.6773 84.171 31.2853 84.875 31.712C85.6003 32.1387 86.3683 32.352 87.179 32.352C88.011 32.352 88.7897 32.1493 89.515 31.744C90.2403 31.3173 90.8163 30.72 91.243 29.952C91.6697 29.1627 91.883 28.224 91.883 27.136ZM107.555 36.288C106.104 36.288 104.803 36.032 103.651 35.52C102.499 34.9867 101.581 34.272 100.899 33.376C100.237 32.48 99.8745 31.488 99.8105 30.4H104.323C104.408 31.0827 104.739 31.648 105.315 32.096C105.912 32.544 106.648 32.768 107.523 32.768C108.376 32.768 109.037 32.5973 109.507 32.256C109.997 31.9147 110.243 31.4773 110.243 30.944C110.243 30.368 109.944 29.9413 109.347 29.664C108.771 29.3653 107.843 29.0453 106.562 28.704C105.24 28.384 104.152 28.0533 103.299 27.712C102.467 27.3707 101.741 26.848 101.123 26.144C100.525 25.44 100.227 24.4907 100.227 23.296C100.227 22.3147 100.504 21.4187 101.059 20.608C101.635 19.7973 102.445 19.1573 103.491 18.688C104.557 18.2187 105.805 17.984 107.235 17.984C109.347 17.984 111.032 18.5173 112.291 19.584C113.549 20.6293 114.243 22.048 114.371 23.84H110.083C110.019 23.136 109.72 22.5813 109.187 22.176C108.675 21.7493 107.981 21.536 107.107 21.536C106.296 21.536 105.667 21.6853 105.219 21.984C104.792 22.2827 104.579 22.6987 104.579 23.232C104.579 23.8293 104.877 24.288 105.475 24.608C106.072 24.9067 107 25.216 108.259 25.536C109.539 25.856 110.595 26.1867 111.427 26.528C112.259 26.8693 112.973 27.4027 113.571 28.128C114.189 28.832 114.509 29.7707 114.531 30.944C114.531 31.968 114.243 32.8853 113.667 33.696C113.112 34.5067 112.301 35.1467 111.235 35.616C110.189 36.064 108.963 36.288 107.555 36.288ZM117.056 27.072C117.056 25.28 117.408 23.6907 118.112 22.304C118.837 20.9173 119.808 19.8507 121.024 19.104C122.261 18.3573 123.637 17.984 125.152 17.984C126.475 17.984 127.627 18.2507 128.608 18.784C129.611 19.3173 130.411 19.9893 131.008 20.8V18.272H135.52V36H131.008V33.408C130.432 34.24 129.632 34.9333 128.608 35.488C127.605 36.0213 126.443 36.288 125.12 36.288C123.627 36.288 122.261 35.904 121.024 35.136C119.808 34.368 118.837 33.2907 118.112 31.904C117.408 30.496 117.056 28.8853 117.056 27.072ZM131.008 27.136C131.008 26.048 130.795 25.12 130.368 24.352C129.941 23.5627 129.365 22.9653 128.64 22.56C127.915 22.1333 127.136 21.92 126.304 21.92C125.472 21.92 124.704 22.1227 124 22.528C123.296 22.9333 122.72 23.5307 122.272 24.32C121.845 25.088 121.632 26.0053 121.632 27.072C121.632 28.1387 121.845 29.0773 122.272 29.888C122.72 30.6773 123.296 31.2853 124 31.712C124.725 32.1387 125.493 32.352 126.304 32.352C127.136 32.352 127.915 32.1493 128.64 31.744C129.365 31.3173 129.941 30.72 130.368 29.952C130.795 29.1627 131.008 28.224 131.008 27.136Z" fill="black"/>
</svg>
