<svg width="237" height="74" viewBox="0 0 237 74" fill="none" xmlns="http://www.w3.org/2000/svg">
<rect x="71.7201" y="70.5154" width="69" height="69" rx="34.5" transform="rotate(179 71.7201 70.5154)" fill="white"/>
<g clip-path="url(#clip0_196_4089)">
<path d="M26.7999 46.7958L46.4478 26.4498M26.7999 46.7958L43.464 46.505M26.7999 46.7958L26.509 30.1317" stroke="#A6A6A6" stroke-width="3" stroke-linecap="round" stroke-linejoin="round"/>
</g>
<rect x="71.7201" y="70.5154" width="69" height="69" rx="34.5" transform="rotate(179 71.7201 70.5154)" stroke="#A6A6A6" stroke-width="3"/>
<path d="M135.246 28.2456L115.246 48.2456M135.246 28.2456H118.579M135.246 28.2456V44.9123" stroke="black" stroke-width="2" stroke-linecap="round" stroke-linejoin="round"/>
<line x1="154.174" y1="55.7598" x2="154.174" y2="20.7314" stroke="black"/>
<path d="M187.479 54.7759C187.714 52.6169 187.865 50.8916 187.931 49.5999C187.988 48.2988 187.912 47.0826 187.705 45.9512C187.498 44.801 187.069 43.9006 186.418 43.2501C185.805 42.6373 185.174 42.3073 184.523 42.2602C183.873 42.1942 183.217 42.4911 182.557 43.1511C181.916 43.7922 181.619 44.4946 181.666 45.2583C181.714 46.0031 182.058 46.7244 182.699 47.422L181.454 48.6665C180.436 47.5729 179.941 46.4368 179.969 45.2583C179.998 44.0798 180.488 43.0144 181.44 42.0622C182.411 41.0911 183.448 40.5914 184.551 40.5631C185.664 40.5254 186.692 40.9779 187.634 41.9207C188.417 42.7033 188.945 43.7026 189.218 44.9189C189.492 46.1162 189.614 47.2948 189.586 48.4544C189.548 49.6046 189.44 51.0141 189.261 52.6829L194.126 47.818L195.2 48.8928L188.398 55.6952L187.479 54.7759ZM191.583 42.2998C189.961 40.6782 188.962 39.1508 188.585 37.7178C188.198 36.2753 188.665 34.8941 189.985 33.5741C191.295 32.2636 192.672 31.8016 194.114 32.1882C195.547 32.5653 197.075 33.5647 198.696 35.1863C200.346 36.8362 201.364 38.3824 201.751 39.8249C202.138 41.2674 201.676 42.6439 200.365 43.9544C199.045 45.2744 197.664 45.7411 196.221 45.3545C194.779 44.968 193.233 43.9497 191.583 42.2998ZM197.423 36.4591C196.603 35.6389 195.854 35.0025 195.175 34.5499C194.496 34.0785 193.813 33.8381 193.124 33.8287C192.445 33.8098 191.79 34.1162 191.159 34.7479C190.517 35.389 190.202 36.0537 190.211 36.742C190.23 37.4208 190.47 38.1043 190.932 38.7926C191.394 39.462 192.035 40.2068 192.856 41.027C193.704 41.8756 194.468 42.5355 195.147 43.0069C195.835 43.4689 196.518 43.7093 197.197 43.7282C197.885 43.7376 198.55 43.4218 199.191 42.7806C199.823 42.149 200.129 41.4937 200.11 40.8149C200.101 40.1266 199.861 39.4431 199.389 38.7643C198.927 38.076 198.272 37.3076 197.423 36.4591ZM208.623 26.4475L205.611 29.4598L208.665 32.5145L207.463 33.7165L204.409 30.6618L201.411 33.66L200.322 32.571L203.32 29.5729L200.251 26.504L201.453 25.302L204.522 28.3708L207.534 25.3585L208.623 26.4475Z" fill="black"/>
<rect x="98.7461" y="4.74561" width="136" height="67" rx="33.5" stroke="black" stroke-width="3"/>
<defs>
<clipPath id="clip0_196_4089">
<rect width="24" height="24" fill="white" transform="translate(48.8311 48.4116) rotate(179)"/>
</clipPath>
</defs>
</svg>
