<svg width="24" height="24" viewBox="0 0 24 24" fill="none" xmlns="http://www.w3.org/2000/svg">
<path d="M22 12C22.0017 13.3172 21.7423 14.6216 21.2369 15.8379C20.7315 17.0543 19.9901 18.1584 19.0555 19.0865C18.1285 20.0118 17.0283 20.7454 15.8177 21.2453C14.607 21.7452 13.3098 22.0017 12 22C6.47701 22 2.00001 17.523 2.00001 12C1.99651 9.43589 2.98144 6.96908 4.75001 5.11251C5.68318 4.12781 6.80746 3.34388 8.05407 2.8087C9.30067 2.27352 10.6434 1.99834 12 2.00001C13.3098 1.99831 14.607 2.25475 15.8177 2.75466C17.0283 3.25458 18.1285 3.98817 19.0555 4.91351C19.9901 5.84162 20.7315 6.94574 21.2369 8.16208C21.7423 9.37841 22.0017 10.6828 22 12V12Z" stroke="black" stroke-linecap="round" stroke-linejoin="round"/>
<path d="M22.0001 12C20.5411 12 16.5161 11.45 12.9136 13.0315C9.00014 14.75 6.16664 17.4155 4.93164 19.0735" stroke="black" stroke-linecap="round" stroke-linejoin="round"/>
<path d="M8.25 2.72702C9.815 4.17152 13.23 7.84902 14.5 11.5C15.77 15.151 16.24 19.64 16.53 20.9175" stroke="black" stroke-linecap="round" stroke-linejoin="round"/>
<path d="M2.75015 15.8065C3.6313 17.9394 5.2205 19.7036 7.25014 20.802M2.07715 10.75C3.96615 10.864 8.96664 10.9665 12.1666 9.59998C15.3666 8.23348 18.1201 5.71998 19.0646 4.92249L2.07715 10.75Z" stroke="black" stroke-linecap="round" stroke-linejoin="round"/>
<path d="M12 22C13.3098 22.0017 14.607 21.7452 15.8177 21.2453C17.0283 20.7454 18.1285 20.0118 19.0555 19.0865M2.00001 12C1.99651 9.43589 2.98144 6.96908 4.75001 5.11251L2.00001 12ZM12 2.00001C10.6434 1.99834 9.30067 2.27352 8.05407 2.8087C6.80746 3.34388 5.68318 4.12781 4.75001 5.11251L12 2.00001ZM16 2.83201C17.1388 3.33028 18.1749 4.03612 19.0555 4.91351C19.9901 5.84162 20.7315 6.94574 21.2369 8.16208C21.7423 9.37841 22.0017 10.6828 22 12C22 13.231 21.7775 14.4105 21.37 15.5L16 2.83201Z" stroke="black" stroke-linecap="round" stroke-linejoin="round"/>
</svg>
