<svg width="96" height="96" viewBox="0 0 96 96" fill="none" xmlns="http://www.w3.org/2000/svg">
<rect width="96" height="96" rx="48" fill="#F6F6F6"/>
<path d="M61.3337 48C61.3359 49.7562 60.9901 51.4955 60.3162 53.1172C59.6424 54.739 58.6538 56.2112 57.4077 57.4487C56.1717 58.6824 54.7047 59.6606 53.0906 60.3271C51.4764 60.9937 49.7467 61.3356 48.0003 61.3333C40.6363 61.3333 34.667 55.364 34.667 48C34.6623 44.5812 35.9756 41.2921 38.3337 38.8167C39.5779 37.5037 41.0769 36.4585 42.7391 35.7449C44.4012 35.0314 46.1915 34.6645 48.0003 34.6667C49.7467 34.6644 51.4764 35.0063 53.0906 35.6729C54.7047 36.3394 56.1717 37.3176 57.4077 38.5513C58.6538 39.7888 59.6424 41.261 60.3162 42.8828C60.9901 44.5046 61.3359 46.2438 61.3337 48V48Z" stroke="black" stroke-linecap="round" stroke-linejoin="round"/>
<path d="M61.3332 48.0001C59.3878 48.0001 54.0212 47.2667 49.2179 49.3754C43.9999 51.6667 40.2219 55.2207 38.5752 57.4314" stroke="black" stroke-linecap="round" stroke-linejoin="round"/>
<path d="M43 35.636C45.0867 37.562 49.64 42.4654 51.3333 47.3334C53.0267 52.2014 53.6533 58.1867 54.04 59.89" stroke="black" stroke-linecap="round" stroke-linejoin="round"/>
<path d="M35.6669 53.0753C36.8417 55.9192 38.9607 58.2715 41.6669 59.736M34.7695 46.3333C37.2882 46.4853 43.9555 46.622 48.2222 44.8C52.4888 42.978 56.1602 39.6267 57.4195 38.5633L34.7695 46.3333Z" stroke="black" stroke-linecap="round" stroke-linejoin="round"/>
<path d="M48.0003 61.3333C49.7467 61.3356 51.4764 60.9937 53.0906 60.3271C54.7047 59.6606 56.1717 58.6824 57.4077 57.4487M34.667 48C34.6623 44.5812 35.9756 41.2921 38.3337 38.8167L34.667 48ZM48.0003 34.6667C46.1915 34.6645 44.4012 35.0314 42.7391 35.7449C41.0769 36.4585 39.5779 37.5037 38.3337 38.8167L48.0003 34.6667ZM53.3337 35.776C54.8521 36.4404 56.2336 37.3815 57.4077 38.5513C58.6538 39.7888 59.6424 41.261 60.3162 42.8828C60.9901 44.5046 61.3359 46.2438 61.3337 48C61.3337 49.6413 61.037 51.214 60.4937 52.6667L53.3337 35.776Z" stroke="black" stroke-linecap="round" stroke-linejoin="round"/>
</svg>
