<svg width="24" height="24" viewBox="0 0 24 24" fill="none" xmlns="http://www.w3.org/2000/svg">
<path d="M6.70058 17.6981C6.53389 17.6636 6.40054 17.6291 6.23385 17.5601C6.06717 17.4911 5.93382 17.4567 5.80047 17.3877C5.50043 17.2497 5.23373 17.0772 4.96703 16.8703C4.43363 16.4908 4.00025 15.9735 3.66687 15.3526C3.3335 14.7662 3.13347 14.0763 3.10014 13.421C3.0668 13.076 3.10014 12.7656 3.13347 12.4207C3.16681 12.2482 3.20015 12.1102 3.23348 11.9378C3.26682 11.7653 3.3335 11.6273 3.36683 11.4549L3.40017 11.9378C3.40017 12.1102 3.43351 12.2482 3.46685 12.4207C3.50018 12.7311 3.56686 13.0415 3.63353 13.3175C3.76688 13.9039 3.96691 14.4558 4.26695 14.9732C4.56698 15.4905 4.90036 15.9735 5.33374 16.4219C5.53377 16.6288 5.76713 16.8358 6.00049 17.0427C6.1005 17.1462 6.23385 17.2497 6.3672 17.3532L6.70058 17.6981ZM6.60057 18.9399C6.50055 19.0088 6.3672 19.0433 6.23385 19.0778C6.1005 19.1123 6.00049 19.1468 5.86714 19.1468C5.63378 19.1813 5.36708 19.2158 5.10038 19.1813C4.60032 19.1468 4.06692 19.0088 3.63353 18.7674C3.16681 18.5259 2.76676 18.1465 2.50006 17.6981C2.36671 17.4911 2.23336 17.2497 2.13335 17.0082C2.10001 16.9048 2.06667 16.7668 2.03334 16.6288C2.03334 16.5253 2 16.4219 2 16.2839C2.10001 16.3874 2.16669 16.4564 2.23336 16.5598C2.33337 16.6633 2.40005 16.7668 2.46672 16.8358C2.63341 17.0082 2.76676 17.1807 2.93345 17.3187C3.26682 17.6291 3.6002 17.9051 4.00025 18.112C4.36696 18.319 4.80034 18.4914 5.20039 18.6294C5.40042 18.6984 5.63378 18.7329 5.86714 18.8019C5.96715 18.8364 6.1005 18.8364 6.20052 18.8709C6.3672 18.9054 6.46722 18.9054 6.60057 18.9399ZM14.1348 2.17621C14.3015 2.2107 14.4349 2.27969 14.6016 2.34868C14.7682 2.41766 14.9016 2.48665 15.0349 2.55564C15.335 2.7281 15.6017 2.90057 15.8684 3.10752C16.4018 3.52144 16.8352 4.07333 17.1352 4.69421C17.4352 5.31508 17.6019 6.00495 17.6019 6.66031C17.6019 7.00525 17.5686 7.31568 17.5019 7.66061C17.4686 7.83308 17.4352 7.97105 17.3686 8.14352C17.3019 8.31598 17.2685 8.45396 17.2019 8.59193L17.1685 8.10903C17.1685 7.93656 17.1685 7.79859 17.1352 7.62612L17.0352 6.69481C16.9352 6.10842 16.7351 5.52204 16.4684 4.97015C16.2017 4.41826 15.8684 3.93536 15.4683 3.48695C15.2683 3.2455 15.0349 3.03854 14.8349 2.79709C14.7349 2.69361 14.6016 2.59013 14.4682 2.48665L14.1348 2.17621ZM17.0352 2.03824C17.1685 2.07273 17.2685 2.10722 17.3686 2.17621C17.4686 2.2107 17.6019 2.27969 17.7019 2.34868C17.902 2.48665 18.102 2.62462 18.302 2.79709C18.6687 3.14202 18.9688 3.55594 19.1354 4.03884C19.3355 4.52174 19.4021 5.03914 19.3355 5.55654C19.3021 5.79799 19.2355 6.03944 19.1688 6.28089C19.1354 6.38437 19.0688 6.52234 19.0354 6.62582C18.9688 6.7293 18.9354 6.83278 18.8354 6.93626V6.2464C18.8354 6.00495 18.8021 5.79799 18.8021 5.59103C18.7354 5.14262 18.6687 4.7287 18.502 4.34928C18.3353 3.93536 18.1353 3.59043 17.902 3.211C17.7686 3.03854 17.6353 2.83158 17.5019 2.65911C17.4352 2.55564 17.3686 2.48665 17.2685 2.38317C17.2019 2.2107 17.1019 2.10722 17.0352 2.03824Z" fill="#42ADE2"/>
<path d="M4.66745 7.17765C4.0007 7.48809 3.76734 8.31592 4.06737 9.00579L8.26789 18.0775L10.6015 16.9392L6.40099 7.83302C6.10096 7.14316 5.3342 6.83272 4.66745 7.17765ZM15.7021 14.3867L18.1691 13.145L13.3685 2.79703C13.0351 2.10716 12.235 1.79673 11.535 2.14166C10.8682 2.48659 10.5682 3.31442 10.9015 4.03878L15.7021 14.3867Z" fill="#D6A57C"/>
<path d="M11.5682 2.14189C11.5015 2.17638 11.4348 2.21087 11.3682 2.27986C12.0016 2.1074 12.6683 2.41783 12.9684 3.03871L17.769 13.3866L18.2023 13.1797L13.4017 2.83175C13.0684 2.1074 12.2683 1.79696 11.5682 2.14189Z" fill="#B58360"/>
<path d="M10.6012 16.9045L13.1682 15.6283L8.26763 5.07337C7.93425 4.34902 7.06748 4.00409 6.36739 4.34902C5.66731 4.69395 5.36727 5.59077 5.70064 6.31512L10.6012 16.9045Z" fill="#D6A57C"/>
<path d="M6.36702 4.38384C6.30034 4.41833 6.23367 4.45282 6.16699 4.52181C6.8004 4.34934 7.53383 4.65978 7.83386 5.31515L10.8676 11.9033L11.601 12.3517L8.26725 5.10819C7.93388 4.34934 7.10044 4.03891 6.36702 4.38384Z" fill="#B58360"/>
<path d="M12.7682 14.8009L15.3352 13.5247L10.4346 2.96981C10.1012 2.24545 9.23447 1.90052 8.53439 2.27994C7.8343 2.62488 7.53426 3.5217 7.86764 4.24605L12.7682 14.8009Z" fill="#D6A57C"/>
<path d="M8.53396 2.24517C8.46729 2.27966 8.40061 2.34865 8.33394 2.38314C8.96735 2.21067 9.70077 2.52111 10.0008 3.17648L13.4346 10.627L14.168 11.0754L10.4342 2.96952C10.1008 2.21067 9.23405 1.90023 8.53396 2.24517ZM4.66682 7.17768C4.60015 7.21217 4.53347 7.24667 4.4668 7.31565C5.06687 7.14319 5.70028 7.45362 5.96698 8.0745L8.46729 13.4899L9.20071 13.9383L6.40037 7.86754C6.10033 7.14319 5.33357 6.83275 4.66682 7.17768Z" fill="#B58360"/>
<path d="M21.6027 6.14273C20.7026 5.41838 19.2358 6.21172 18.5023 8.69522C18.0023 10.4199 17.9356 10.9373 16.8688 11.4547L16.2687 10.1784C16.2687 10.1784 6.8009 14.904 7.16761 15.6628C7.16761 15.6628 8.30108 19.3191 10.2347 21.0093C13.1017 23.5273 19.8025 20.8368 20.1025 14.2486C20.2692 10.4199 22.5695 6.93607 21.6027 6.14273Z" fill="#D6A57C"/>
<path d="M21.6027 6.14282C21.436 6.00485 21.236 5.93586 21.036 5.90137C21.0693 5.93586 21.136 5.93586 21.1693 5.97035C22.1695 6.76369 21.136 8.59183 20.5693 10.2475C20.1025 11.5582 19.7025 12.9035 19.7692 14.2142C20.0359 19.9401 14.4685 22.665 11.1348 21.6302C14.4018 23.0444 20.4692 20.354 20.2025 14.3867C20.1359 13.0759 20.5026 11.7997 21.0026 10.42C21.536 8.76429 22.5695 6.93616 21.6027 6.14282Z" fill="#B58360"/>
<path d="M17.1688 11.3169C15.1018 11.5583 12.0681 14.6282 14.2017 17.9741C12.6349 14.5937 15.2018 12.3172 16.8354 11.5239C17.0021 11.3859 17.1688 11.3169 17.1688 11.3169Z" fill="#B58360"/>
</svg>
