<svg width="20" height="20" viewBox="0 0 20 20" fill="none" xmlns="http://www.w3.org/2000/svg">
<path d="M9.99777 4.87225C12.8355 4.87225 15.1244 7.16166 15.1244 10C15.1244 12.8383 12.8355 15.1277 9.99777 15.1277C7.16007 15.1277 4.87117 12.8383 4.87117 10C4.87117 7.16166 7.16007 4.87225 9.99777 4.87225ZM9.99777 13.3337C11.8316 13.3337 13.3307 11.8387 13.3307 10C13.3307 8.16133 11.836 6.6663 9.99777 6.6663C8.15951 6.6663 6.66481 8.16133 6.66481 10C6.66481 11.8387 8.16397 13.3337 9.99777 13.3337ZM3.4657 4.6625C3.4657 5.32746 4.00111 5.85853 4.66146 5.85853C5.32627 5.85853 5.85722 5.32299 5.85722 4.6625C5.85722 4.00201 5.32181 3.46647 4.66146 3.46647C4.00111 3.46647 3.4657 4.00201 3.4657 4.6625ZM0.0702724 5.87638C0.146124 4.27424 0.511992 2.85507 1.68544 1.68582C2.85443 0.516568 4.27328 0.150619 5.87507 0.070289C7.52593 -0.0234297 12.4741 -0.0234297 14.1249 0.070289C15.7223 0.146156 17.1411 0.512105 18.3146 1.68136C19.488 2.85061 19.8494 4.26978 19.9297 5.87192C20.0234 7.52315 20.0234 12.4724 19.9297 14.1236C19.8539 15.7258 19.488 17.1449 18.3146 18.3142C17.1411 19.4834 15.7267 19.8494 14.1249 19.9297C12.4741 20.0234 7.52593 20.0234 5.87507 19.9297C4.27328 19.8538 2.85443 19.4879 1.68544 18.3142C0.516453 17.1449 0.150585 15.7258 0.0702724 14.1236C-0.0234241 12.4724 -0.0234241 7.52761 0.0702724 5.87638ZM2.20301 15.8953C2.55103 16.7701 3.22476 17.4439 4.10374 17.7965C5.41997 18.3186 8.54322 18.1981 9.99777 18.1981C11.4523 18.1981 14.58 18.3142 15.8918 17.7965C16.7663 17.4484 17.44 16.7745 17.7925 15.8953C18.3146 14.5788 18.1941 11.4549 18.1941 10C18.1941 8.54513 18.3101 5.41671 17.7925 4.10465C17.4445 3.22995 16.7708 2.55606 15.8918 2.2035C14.5756 1.68136 11.4523 1.80185 9.99777 1.80185C8.54322 1.80185 5.4155 1.68582 4.10374 2.2035C3.22922 2.5516 2.55549 3.22548 2.20301 4.10465C1.68098 5.42118 1.80145 8.54513 1.80145 10C1.80145 11.4549 1.68098 14.5833 2.20301 15.8953Z" fill="black"/>
</svg>
