<svg width="96" height="96" viewBox="0 0 96 96" fill="none" xmlns="http://www.w3.org/2000/svg">
<rect width="96" height="96" rx="48" fill="#F6F6F6"/>
<path d="M47.9967 41.163C51.7803 41.163 54.8322 44.2156 54.8322 48C54.8322 51.7845 51.7803 54.837 47.9967 54.837C44.2131 54.837 41.1612 51.7845 41.1612 48C41.1612 44.2156 44.2131 41.163 47.9967 41.163ZM47.9967 52.4449C50.4418 52.4449 52.4406 50.4516 52.4406 48C52.4406 45.5484 50.4477 43.5551 47.9967 43.5551C45.5457 43.5551 43.5528 45.5484 43.5528 48C43.5528 50.4516 45.5516 52.4449 47.9967 52.4449ZM39.2873 40.8833C39.2873 41.7699 40.0012 42.478 40.8816 42.478C41.768 42.478 42.476 41.764 42.476 40.8833C42.476 40.0027 41.7621 39.2886 40.8816 39.2886C40.0012 39.2886 39.2873 40.0027 39.2873 40.8833ZM34.76 42.5018C34.8612 40.3657 35.349 38.4734 36.9136 36.9144C38.4723 35.3554 40.3641 34.8675 42.4998 34.7604C44.7009 34.6354 51.2984 34.6354 53.4996 34.7604C55.6293 34.8615 57.5211 35.3495 59.0857 36.9085C60.6504 38.4675 61.1322 40.3597 61.2393 42.4959C61.3642 44.6975 61.3642 51.2965 61.2393 53.4982C61.1382 55.6344 60.6504 57.5266 59.0857 59.0856C57.5211 60.6446 55.6353 61.1325 53.4996 61.2396C51.2984 61.3646 44.7009 61.3646 42.4998 61.2396C40.3641 61.1385 38.4723 60.6505 36.9136 59.0856C35.3549 57.5266 34.8671 55.6344 34.76 53.4982C34.6351 51.2965 34.6351 44.7035 34.76 42.5018ZM37.6037 55.8605C38.0677 57.0267 38.966 57.9253 40.138 58.3953C41.893 59.0915 46.0573 58.9309 47.9967 58.9309C49.9361 58.9309 54.1064 59.0856 55.8554 58.3953C57.0214 57.9312 57.9197 57.0327 58.3897 55.8605C59.0857 54.1051 58.9251 49.9398 58.9251 48C58.9251 46.0602 59.0798 41.889 58.3897 40.1395C57.9257 38.9733 57.0274 38.0748 55.8554 37.6047C54.1004 36.9085 49.9361 37.0691 47.9967 37.0691C46.0573 37.0691 41.887 36.9144 40.138 37.6047C38.972 38.0688 38.0737 38.9673 37.6037 40.1395C36.9076 41.8949 37.0683 46.0602 37.0683 48C37.0683 49.9398 36.9076 54.1111 37.6037 55.8605Z" fill="black"/>
</svg>
