<svg width="37" height="36" viewBox="0 0 37 36" fill="none" xmlns="http://www.w3.org/2000/svg">
<path d="M8.82794 12.6074H1.77296C1.53907 12.6074 1.31476 12.7022 1.14938 12.8709C0.983994 13.0396 0.891083 13.2685 0.891083 13.5071V35.1003C0.891083 35.3389 0.983994 35.5678 1.14938 35.7365C1.31476 35.9052 1.53907 36 1.77296 36H8.82794C9.06183 36 9.28614 35.9052 9.45152 35.7365C9.6169 35.5678 9.70982 35.3389 9.70982 35.1003V13.5071C9.70982 13.2685 9.6169 13.0396 9.45152 12.8709C9.28614 12.7022 9.06183 12.6074 8.82794 12.6074ZM7.94607 34.2006H2.65483V14.4068H7.94607V34.2006ZM27.3473 12.6074C25.4336 12.6074 23.5729 13.2516 22.056 14.441V13.5071C22.056 13.2685 21.9631 13.0396 21.7977 12.8709C21.6324 12.7022 21.4081 12.6074 21.1742 12.6074H14.1192C13.8853 12.6074 13.661 12.7022 13.4956 12.8709C13.3302 13.0396 13.2373 13.2685 13.2373 13.5071V35.1003C13.2373 35.3389 13.3302 35.5678 13.4956 35.7365C13.661 35.9052 13.8853 36 14.1192 36H21.1742C21.4081 36 21.6324 35.9052 21.7977 35.7365C21.9631 35.5678 22.056 35.3389 22.056 35.1003V25.2034C22.056 24.4876 22.3348 23.801 22.8309 23.2948C23.3271 22.7886 24 22.5043 24.7017 22.5043C25.4033 22.5043 26.0762 22.7886 26.5724 23.2948C27.0685 23.801 27.3473 24.4876 27.3473 25.2034V35.1003C27.3473 35.3389 27.4402 35.5678 27.6056 35.7365C27.771 35.9052 27.9953 36 28.2292 36H35.2841C35.518 36 35.7423 35.9052 35.9077 35.7365C36.0731 35.5678 36.166 35.3389 36.166 35.1003V21.6046C36.1632 19.2192 35.2332 16.9324 33.58 15.2458C31.9267 13.5591 29.6853 12.6103 27.3473 12.6074V12.6074ZM34.4023 34.2006H29.111V25.2034C29.111 24.0103 28.6465 22.8661 27.8196 22.0224C26.9926 21.1788 25.8711 20.7048 24.7017 20.7048C23.5322 20.7048 22.4107 21.1788 21.5838 22.0224C20.7569 22.8661 20.2923 24.0103 20.2923 25.2034V34.2006H15.0011V14.4068H20.2923V16.5715C20.2923 16.7579 20.3489 16.9396 20.4545 17.0917C20.56 17.2438 20.7093 17.3587 20.8816 17.4205C21.0539 17.4823 21.2408 17.488 21.4164 17.4369C21.592 17.3857 21.7477 17.2801 21.862 17.1348C22.7678 15.9635 24.0092 15.1097 25.4132 14.6926C26.8172 14.2755 28.3138 14.3157 29.6943 14.8078C31.0748 15.2999 32.2704 16.2192 33.1143 17.4376C33.9583 18.6559 34.4085 20.1126 34.4023 21.6046V34.2006ZM5.94951 0.0149731C5.74227 7.12019e-05 5.5343 -0.0011311 5.32691 0.0113741C4.66686 -0.0344455 4.00461 0.0584882 3.3812 0.284419C2.75779 0.510349 2.18648 0.864464 1.70267 1.32483C1.21887 1.78519 0.832858 2.342 0.568563 2.96076C0.304267 3.57953 0.167313 4.24706 0.166183 4.92202C0.160705 5.58993 0.289776 6.25187 0.545392 6.86679C0.801007 7.4817 1.17772 8.03649 1.65216 8.49675C2.12661 8.957 2.68867 9.31291 3.3035 9.5424C3.91833 9.7719 4.57282 9.87008 5.22637 9.83087H5.27576C5.9075 9.876 6.54176 9.79375 7.14234 9.5888C7.74293 9.38385 8.29806 9.06022 8.77605 8.63639C9.25404 8.21256 9.64552 7.69683 9.92815 7.11864C10.2108 6.54045 10.379 5.91113 10.4233 5.26661C10.4675 4.62209 10.3869 3.97499 10.186 3.36226C9.9851 2.74953 9.66789 2.18316 9.25246 1.6955C8.83704 1.20784 8.33153 0.808439 7.76481 0.520093C7.19809 0.231747 6.58125 0.0601073 5.94951 0.0149731V0.0149731ZM5.88778 8.03684C5.6841 8.05573 5.47908 8.05392 5.27576 8.03144H5.22637C4.80189 8.06399 4.37541 8.00589 3.97418 7.86084C3.57294 7.71578 3.20576 7.48696 2.89608 7.18899C2.5864 6.89102 2.34102 6.53044 2.1756 6.13027C2.01019 5.73011 1.92838 5.29915 1.9354 4.86492C1.94242 4.43068 2.03811 4.00271 2.21636 3.60833C2.39462 3.21394 2.65151 2.86181 2.97066 2.57442C3.2898 2.28703 3.66418 2.07068 4.06988 1.9392C4.47559 1.80772 4.9037 1.76399 5.32691 1.81081C6.13616 1.73492 6.94181 1.99013 7.56663 2.52028C8.19144 3.05042 8.58425 3.81209 8.65862 4.63771C8.733 5.46334 8.48286 6.28529 7.96322 6.92275C7.44359 7.56021 6.69703 7.96096 5.88778 8.03684V8.03684Z" fill="black"/>
</svg>
