<svg width="92" height="92" viewBox="0 0 92 92" fill="none" xmlns="http://www.w3.org/2000/svg">
<rect width="92" height="92" rx="46" fill="white"/>
<path d="M45.9997 52.6666C49.6816 52.6666 52.6663 49.6818 52.6663 45.9999C52.6663 42.318 49.6816 39.3333 45.9997 39.3333C42.3178 39.3333 39.333 42.318 39.333 45.9999C39.333 49.6818 42.3178 52.6666 45.9997 52.6666Z" fill="black"/>
<path d="M47.6663 32.7816V29.3333H44.333V32.7816C41.4002 33.1561 38.6746 34.4935 36.584 36.5842C34.4933 38.6749 33.1558 41.4004 32.7813 44.3333H29.333V47.6666H32.7813C33.1553 50.5996 34.4926 53.3255 36.5833 55.4163C38.6741 57.507 41.4 58.8443 44.333 59.2183V62.6666H47.6663V59.2183C50.5995 58.8446 53.3255 57.5074 55.4163 55.4166C57.5071 53.3258 58.8444 50.5997 59.218 47.6666H62.6663V44.3333H59.218C58.8441 41.4002 57.5068 38.6743 55.416 36.5836C53.3252 34.4928 50.5994 33.1555 47.6663 32.7816ZM45.9997 55.9999C40.4847 55.9999 35.9997 51.5149 35.9997 45.9999C35.9997 40.4849 40.4847 35.9999 45.9997 35.9999C51.5147 35.9999 55.9997 40.4849 55.9997 45.9999C55.9997 51.5149 51.5147 55.9999 45.9997 55.9999Z" fill="black"/>
</svg>
