<svg width="24" height="24" viewBox="0 0 24 24" fill="none" xmlns="http://www.w3.org/2000/svg">
<path d="M20.0952 2H3.90476C3.39959 2 2.9151 2.2073 2.55789 2.57631C2.20068 2.94531 2 3.44578 2 3.96763V16.2653C2 16.7872 2.20068 17.2877 2.55789 17.6567C2.9151 18.0257 3.39959 18.233 3.90476 18.233H7.98857C8.13405 18.2335 8.27751 18.2681 8.4081 18.3344C8.53869 18.4006 8.653 18.4966 8.74238 18.6152L10.8438 21.4264C10.9765 21.6056 11.1475 21.7505 11.3435 21.8501C11.5394 21.9496 11.755 22.0009 11.9733 22H12C12.2223 21.9973 12.441 21.9406 12.6381 21.8343C12.8353 21.7281 13.0054 21.5754 13.1348 21.3885L15.0557 18.6407C15.144 18.515 15.2597 18.4125 15.3935 18.3417C15.5273 18.2708 15.6754 18.2336 15.8257 18.233H20.0952C20.6004 18.233 21.0849 18.0257 21.4421 17.6567C21.7993 17.2877 22 16.7872 22 16.2653V3.96763C22 3.44578 21.7993 2.94531 21.4421 2.57631C21.0849 2.2073 20.6004 2 20.0952 2ZM8.19048 11.5922C7.95502 11.5922 7.72486 11.5201 7.52908 11.3849C7.33331 11.2498 7.18072 11.0578 7.09062 10.833C7.00051 10.6083 6.97694 10.3611 7.02287 10.1225C7.06881 9.88397 7.18219 9.66484 7.34868 9.49285C7.51517 9.32087 7.7273 9.20374 7.95823 9.15629C8.18916 9.10884 8.42852 9.1332 8.64605 9.22627C8.86358 9.31935 9.04951 9.47698 9.18032 9.67921C9.31113 9.88144 9.38095 10.1192 9.38095 10.3624C9.38095 10.6886 9.25553 11.0014 9.03227 11.232C8.80901 11.4626 8.50621 11.5922 8.19048 11.5922ZM12 11.5922C11.7645 11.5922 11.5344 11.5201 11.3386 11.3849C11.1428 11.2498 10.9902 11.0578 10.9001 10.833C10.81 10.6083 10.7865 10.3611 10.8324 10.1225C10.8783 9.88397 10.9917 9.66484 11.1582 9.49285C11.3247 9.32087 11.5368 9.20374 11.7677 9.15629C11.9987 9.10884 12.238 9.1332 12.4556 9.22627C12.6731 9.31935 12.859 9.47698 12.9898 9.67921C13.1207 9.88144 13.1905 10.1192 13.1905 10.3624C13.1905 10.6886 13.0651 11.0014 12.8418 11.232C12.6185 11.4626 12.3157 11.5922 12 11.5922ZM15.8095 11.5922C15.5741 11.5922 15.3439 11.5201 15.1481 11.3849C14.9524 11.2498 14.7998 11.0578 14.7097 10.833C14.6196 10.6083 14.596 10.3611 14.6419 10.1225C14.6879 9.88397 14.8012 9.66484 14.9677 9.49285C15.1342 9.32087 15.3463 9.20374 15.5773 9.15629C15.8082 9.10884 16.0476 9.1332 16.2651 9.22627C16.4826 9.31935 16.6686 9.47698 16.7994 9.67921C16.9302 9.88144 17 10.1192 17 10.3624C17 10.6886 16.8746 11.0014 16.6513 11.232C16.4281 11.4626 16.1253 11.5922 15.8095 11.5922Z" fill="black"/>
</svg>
