<svg width="92" height="92" viewBox="0 0 92 92" fill="none" xmlns="http://www.w3.org/2000/svg">
<rect width="92" height="92" rx="46" fill="white"/>
<path d="M59.4917 29.3333H32.5076C31.6657 29.3333 30.8582 29.6788 30.2628 30.2938C29.6675 30.9088 29.333 31.7429 29.333 32.6126V53.1088C29.333 53.9785 29.6675 54.8127 30.2628 55.4277C30.8582 56.0427 31.6657 56.3882 32.5076 56.3882H39.314C39.5564 56.389 39.7955 56.4468 40.0132 56.5572C40.2308 56.6675 40.4213 56.8276 40.5703 57.0252L44.0727 61.7106C44.2938 62.0092 44.5788 62.2508 44.9054 62.4167C45.232 62.5825 45.5913 62.668 45.9552 62.6666H45.9997C46.3703 62.6621 46.7346 62.5676 47.0632 62.3905C47.3918 62.2134 47.6754 61.9589 47.8909 61.6475L51.0925 57.0678C51.2396 56.8583 51.4325 56.6875 51.6555 56.5694C51.8785 56.4513 52.1253 56.3892 52.3759 56.3882H59.4917C60.3337 56.3882 61.1412 56.0427 61.7365 55.4277C62.3319 54.8127 62.6663 53.9785 62.6663 53.1088V32.6126C62.6663 31.7429 62.3319 30.9088 61.7365 30.2938C61.1412 29.6788 60.3337 29.3333 59.4917 29.3333ZM39.6505 45.3203C39.258 45.3203 38.8744 45.2001 38.5481 44.9748C38.2219 44.7496 37.9675 44.4295 37.8174 44.055C37.6672 43.6805 37.6279 43.2684 37.7045 42.8708C37.781 42.4732 37.97 42.108 38.2475 41.8213C38.525 41.5347 38.8785 41.3395 39.2634 41.2604C39.6483 41.1813 40.0472 41.2219 40.4098 41.377C40.7723 41.5322 41.0822 41.7949 41.3002 42.1319C41.5182 42.469 41.6346 42.8653 41.6346 43.2706C41.6346 43.8142 41.4256 44.3356 41.0535 44.7199C40.6814 45.1043 40.1767 45.3203 39.6505 45.3203ZM45.9997 45.3203C45.6073 45.3203 45.2236 45.2001 44.8974 44.9748C44.5711 44.7496 44.3168 44.4295 44.1666 44.055C44.0164 43.6805 43.9771 43.2684 44.0537 42.8708C44.1302 42.4732 44.3192 42.108 44.5967 41.8213C44.8742 41.5347 45.2277 41.3395 45.6126 41.2604C45.9975 41.1813 46.3964 41.2219 46.759 41.377C47.1215 41.5322 47.4314 41.7949 47.6494 42.1319C47.8674 42.469 47.9838 42.8653 47.9838 43.2706C47.9838 43.8142 47.7748 44.3356 47.4027 44.7199C47.0306 45.1043 46.5259 45.3203 45.9997 45.3203ZM52.3489 45.3203C51.9565 45.3203 51.5728 45.2001 51.2466 44.9748C50.9203 44.7496 50.666 44.4295 50.5158 44.055C50.3656 43.6805 50.3263 43.2684 50.4029 42.8708C50.4794 42.4732 50.6684 42.108 50.9459 41.8213C51.2234 41.5347 51.5769 41.3395 51.9618 41.2604C52.3467 41.1813 52.7456 41.2219 53.1082 41.377C53.4707 41.5322 53.7806 41.7949 53.9986 42.1319C54.2166 42.469 54.333 42.8653 54.333 43.2706C54.333 43.8142 54.124 44.3356 53.7519 44.7199C53.3798 45.1043 52.8751 45.3203 52.3489 45.3203Z" fill="black"/>
</svg>
