<svg width="234" height="234" viewBox="0 0 234 234" fill="none" xmlns="http://www.w3.org/2000/svg">
<rect width="234" height="234" rx="117" fill="#CAB7A7" fill-opacity="0.85"/>
<rect x="67" y="67" width="100" height="100" rx="50" fill="white"/>
<path d="M107.221 129.313C107.508 129.425 107.831 129.5 108.154 129.5C108.657 129.5 109.159 129.313 109.59 129.015L127.353 118.979L127.532 118.793C127.999 118.308 128.25 117.711 128.25 117.04C128.25 116.368 127.998 115.733 127.532 115.286L127.353 115.1L109.59 104.989C108.944 104.467 108.011 104.355 107.221 104.691C106.324 105.064 105.75 105.997 105.75 107.004V127.001C105.75 128.008 106.324 128.94 107.221 129.313V129.313Z" stroke="black" stroke-width="2" stroke-miterlimit="10" stroke-linejoin="round"/>
</svg>
