<svg width="20" height="20" viewBox="0 0 20 20" fill="none" xmlns="http://www.w3.org/2000/svg">
<path d="M5.35714 8.92855H2.5C1.90827 8.92855 1.42857 8.44885 1.42857 7.85712C1.42857 7.26538 1.90827 6.78569 2.5 6.78569H5.35714C5.81009 6.78696 6.2133 7.07293 6.36429 7.49997H7.85714V2.85712H0V9.99997H7.85714V8.21426H6.36429C6.2133 8.64131 5.81009 8.92727 5.35714 8.92855Z" fill="black"/>
<path d="M5.35686 7.5H2.49972C2.30248 7.5 2.14258 7.6599 2.14258 7.85714C2.14258 8.05439 2.30248 8.21429 2.49972 8.21429H5.35686C5.55411 8.21429 5.71401 8.05439 5.71401 7.85714C5.71401 7.6599 5.55411 7.5 5.35686 7.5Z" fill="black"/>
<path d="M0.714286 12.8572H7.14286C7.53735 12.8572 7.85714 12.5374 7.85714 12.1429V10.7143H0V12.1429C0 12.5374 0.319797 12.8572 0.714286 12.8572ZM3.57143 11.4286H4.28571C4.48296 11.4286 4.64286 11.5885 4.64286 11.7857C4.64286 11.983 4.48296 12.1429 4.28571 12.1429H3.57143C3.37418 12.1429 3.21429 11.983 3.21429 11.7857C3.21429 11.5885 3.37418 11.4286 3.57143 11.4286Z" fill="black"/>
<path d="M7.85714 0.714286C7.85714 0.319797 7.53735 0 7.14286 0H0.714286C0.319797 0 0 0.319797 0 0.714286V2.14286H7.85714V0.714286ZM3.57143 1.42857H2.5C2.30276 1.42857 2.14286 1.26867 2.14286 1.07143C2.14286 0.874184 2.30276 0.714286 2.5 0.714286H3.57143C3.76867 0.714286 3.92857 0.874184 3.92857 1.07143C3.92857 1.26867 3.76867 1.42857 3.57143 1.42857ZM5.35714 1.42857H5C4.80276 1.42857 4.64286 1.26867 4.64286 1.07143C4.64286 0.874184 4.80276 0.714286 5 0.714286H5.35714C5.55439 0.714286 5.71429 0.874184 5.71429 1.07143C5.71429 1.26867 5.55439 1.42857 5.35714 1.42857Z" fill="black"/>
<path d="M12.1426 19.2857C12.1426 19.6802 12.4624 20 12.8569 20H19.2854C19.6799 20 19.9997 19.6802 19.9997 19.2857V17.8571H12.1426V19.2857ZM15.714 18.5714H16.4283C16.6255 18.5714 16.7854 18.7313 16.7854 18.9285C16.7854 19.1258 16.6255 19.2857 16.4283 19.2857H15.714C15.5168 19.2857 15.3569 19.1258 15.3569 18.9285C15.3569 18.7313 15.5168 18.5714 15.714 18.5714Z" fill="black"/>
<path d="M12.1426 11.4286H13.7783L13.6747 11.325C13.5347 11.185 13.5347 10.9579 13.6747 10.8179C13.8148 10.6778 14.0418 10.6778 14.1819 10.8179L14.8961 11.5321C14.9284 11.565 14.9538 11.6038 14.9711 11.6464C15.0026 11.7186 15.0076 11.7995 14.9854 11.875C14.9845 11.8925 14.9796 11.9096 14.9711 11.925C14.9538 11.9676 14.9284 12.0064 14.8961 12.0393L14.1819 12.7536C14.041 12.8917 13.8156 12.8917 13.6747 12.7536C13.5354 12.6132 13.5354 12.3868 13.6747 12.2464L13.7783 12.1429H12.1426V17.1429H19.9997V10H12.1426V11.4286Z" fill="black"/>
<path d="M19.2854 7.14288H12.8569C12.4629 7.14406 12.1438 7.46317 12.1426 7.85717V9.28574H19.9997V7.85717C19.9985 7.46317 19.6794 7.14406 19.2854 7.14288ZM15.714 8.57145H14.6426C14.4453 8.57145 14.2854 8.41156 14.2854 8.21431C14.2854 8.01707 14.4453 7.85717 14.6426 7.85717H15.714C15.9113 7.85717 16.0712 8.01707 16.0712 8.21431C16.0712 8.41156 15.9113 8.57145 15.714 8.57145ZM17.4997 8.57145H17.1426C16.9453 8.57145 16.7854 8.41156 16.7854 8.21431C16.7854 8.01707 16.9453 7.85717 17.1426 7.85717H17.4997C17.697 7.85717 17.8569 8.01707 17.8569 8.21431C17.8569 8.41156 17.697 8.57145 17.4997 8.57145Z" fill="black"/>
<path d="M11.0717 11.4286C10.6777 11.4274 10.3586 11.1083 10.3574 10.7143V8.92857C10.3574 8.13959 9.71783 7.5 8.92885 7.5H7.85742V8.21429H8.92885C9.32285 8.21546 9.64196 8.53457 9.64314 8.92857V10.7143C9.64314 11.5033 10.2827 12.1429 11.0717 12.1429H12.1431V11.4286H11.0717Z" fill="black"/>
</svg>
