<svg width="96" height="96" viewBox="0 0 96 96" fill="none" xmlns="http://www.w3.org/2000/svg">
<rect width="96" height="96" rx="48" fill="black"/>
<rect width="26.6667" height="26.6667" transform="translate(34.667 34.6667)" fill="#0C0000" fill-opacity="0.45"/>
<path d="M41.8099 46.5716H38.0003C37.2113 46.5716 36.5718 45.932 36.5718 45.143C36.5718 44.354 37.2113 43.7144 38.0003 43.7144H41.8099C42.4138 43.7161 42.9514 44.0974 43.1527 44.6668H45.1432V38.4763H34.667V48.0001H45.1432V45.6192H43.1527C42.9514 46.1886 42.4138 46.5699 41.8099 46.5716Z" fill="white"/>
<path d="M41.8101 44.6667H38.0006C37.7376 44.6667 37.5244 44.8799 37.5244 45.1429C37.5244 45.4059 37.7376 45.6191 38.0006 45.6191H41.8101C42.0731 45.6191 42.2863 45.4059 42.2863 45.1429C42.2863 44.8799 42.0731 44.6667 41.8101 44.6667Z" fill="black"/>
<path d="M35.6194 51.8095H44.1908C44.7168 51.8095 45.1432 51.3831 45.1432 50.8572V48.9524H34.667V50.8572C34.667 51.3831 35.0934 51.8095 35.6194 51.8095ZM39.4289 49.9048H40.3813C40.6443 49.9048 40.8575 50.118 40.8575 50.381C40.8575 50.644 40.6443 50.8572 40.3813 50.8572H39.4289C39.1659 50.8572 38.9527 50.644 38.9527 50.381C38.9527 50.118 39.1659 49.9048 39.4289 49.9048Z" fill="white"/>
<path d="M45.1432 35.6191C45.1432 35.0931 44.7168 34.6667 44.1908 34.6667H35.6194C35.0934 34.6667 34.667 35.0931 34.667 35.6191V37.5239H45.1432V35.6191ZM39.4289 36.5715H38.0003C37.7373 36.5715 37.5241 36.3583 37.5241 36.0953C37.5241 35.8323 37.7373 35.6191 38.0003 35.6191H39.4289C39.6919 35.6191 39.9051 35.8323 39.9051 36.0953C39.9051 36.3583 39.6919 36.5715 39.4289 36.5715ZM41.8099 36.5715H41.3337C41.0707 36.5715 40.8575 36.3583 40.8575 36.0953C40.8575 35.8323 41.0707 35.6191 41.3337 35.6191H41.8099C42.0728 35.6191 42.286 35.8323 42.286 36.0953C42.286 36.3583 42.0728 36.5715 41.8099 36.5715Z" fill="white"/>
<path d="M50.8574 60.3811C50.8574 60.9071 51.2838 61.3335 51.8098 61.3335H60.3812C60.9072 61.3335 61.3336 60.9071 61.3336 60.3811V58.4763H50.8574V60.3811ZM55.6193 59.4287H56.5717C56.8347 59.4287 57.0479 59.6419 57.0479 59.9049C57.0479 60.1679 56.8347 60.3811 56.5717 60.3811H55.6193C55.3563 60.3811 55.1431 60.1679 55.1431 59.9049C55.1431 59.6419 55.3563 59.4287 55.6193 59.4287Z" fill="white"/>
<path d="M50.8574 49.9048H53.0384L52.9003 49.7667C52.7136 49.5799 52.7136 49.2772 52.9003 49.0905C53.087 48.9038 53.3897 48.9038 53.5765 49.0905L54.5289 50.0429C54.5718 50.0866 54.6058 50.1384 54.6289 50.1952C54.6707 50.2915 54.6775 50.3993 54.6479 50.5C54.6467 50.5234 54.6401 50.5462 54.6289 50.5667C54.6058 50.6235 54.5718 50.6753 54.5289 50.719L53.5765 51.6714C53.3887 51.8556 53.0881 51.8556 52.9003 51.6714C52.7146 51.4843 52.7146 51.1824 52.9003 50.9952L53.0384 50.8571H50.8574V57.5238H61.3336V48H50.8574V49.9048Z" fill="white"/>
<path d="M60.3812 44.1907H51.8098C51.2845 44.1922 50.859 44.6177 50.8574 45.1431V47.0478H61.3336V45.1431C61.332 44.6177 60.9066 44.1922 60.3812 44.1907ZM55.6193 46.0954H54.1908C53.9278 46.0954 53.7146 45.8822 53.7146 45.6192C53.7146 45.3563 53.9278 45.1431 54.1908 45.1431H55.6193C55.8823 45.1431 56.0955 45.3563 56.0955 45.6192C56.0955 45.8822 55.8823 46.0954 55.6193 46.0954ZM58.0003 46.0954H57.5241C57.2611 46.0954 57.0479 45.8822 57.0479 45.6192C57.0479 45.3563 57.2611 45.1431 57.5241 45.1431H58.0003C58.2633 45.1431 58.4765 45.3563 58.4765 45.6192C58.4765 45.8822 58.2633 46.0954 58.0003 46.0954Z" fill="white"/>
<path d="M49.4283 49.9048C48.903 49.9033 48.4775 49.4778 48.4759 48.9525V46.5715C48.4759 45.5195 47.6231 44.6667 46.5711 44.6667H45.1426V45.6191H46.5711C47.0965 45.6207 47.522 46.0462 47.5235 46.5715V48.9525C47.5235 50.0044 48.3763 50.8572 49.4283 50.8572H50.8569V49.9048H49.4283Z" fill="white"/>
</svg>
