<svg width="24" height="24" viewBox="0 0 24 24" fill="none" xmlns="http://www.w3.org/2000/svg">
<path d="M21.0991 2C21.7154 2 22.1804 2.6444 21.9317 3.84299L18.915 20.7908C18.7041 21.9958 18.0932 22.2858 17.2498 21.7251L10.0541 15.3907C10.0262 15.3668 10.0034 15.3354 9.98776 15.2989C9.97208 15.2625 9.9639 15.2222 9.9639 15.1812C9.9639 15.1403 9.97208 15.1 9.98776 15.0635C10.0034 15.0271 10.0262 14.9957 10.0541 14.9718L18.3635 6.02751C18.742 5.62798 18.2824 5.43466 17.7851 5.79553L7.35635 13.6379C7.32472 13.6625 7.28881 13.6782 7.25134 13.6837C7.21387 13.6893 7.17583 13.6847 7.1401 13.6701L2.71236 12.0011C1.72841 11.6596 1.72841 10.8541 2.93401 10.2806L20.6504 2.13532C20.7909 2.05498 20.9435 2.00897 21.0991 2V2Z" stroke="black" stroke-linecap="round" stroke-linejoin="round"/>
</svg>
