<svg width="24" height="24" viewBox="0 0 24 24" fill="none" xmlns="http://www.w3.org/2000/svg">
<rect width="24" height="24" fill="white" fill-opacity="0.01"/>
<path d="M20.2956 2.17658C20.2956 2.17658 22.1456 1.31087 21.9908 3.41315C21.9399 4.27886 21.4775 7.30913 21.1175 10.5863L19.8842 20.2948C19.8842 20.2948 19.7813 21.7171 18.8561 21.9645C17.9313 22.2114 16.5437 21.0988 16.2866 20.8514C16.0809 20.6656 12.4324 17.8828 11.1476 16.5228C10.7876 16.1514 10.3762 15.4097 11.1991 14.544L16.5947 8.35998C17.2114 7.61827 17.828 5.88685 15.2585 7.98913L8.06339 13.8634C8.06339 13.8634 7.24102 14.4822 5.69961 13.9257L2.35871 12.6885C2.35871 12.6885 1.12539 11.7611 3.2325 10.8337C8.37195 7.92741 14.6933 4.95943 20.2946 2.17658H20.2956Z" fill="black"/>
</svg>
