<svg width="104" height="104" viewBox="0 0 104 104" fill="none" xmlns="http://www.w3.org/2000/svg">
<g filter="url(#filter0_d_196_4093)">
<rect x="4" width="96" height="96" rx="48" fill="black"/>
<path d="M55.5559 44.4445C55.5559 46.405 53.9613 48.0001 52.0003 48.0001C50.0394 48.0001 48.4448 46.405 48.4448 44.4445C48.4448 42.484 50.0394 40.889 52.0003 40.889C53.9613 40.889 55.5559 42.484 55.5559 44.4445ZM56.4404 53.1355C56.3363 50.7766 54.3849 48.889 52.0003 48.889C49.5498 48.889 47.5559 50.8829 47.5559 53.3334C47.5559 53.8243 47.9535 54.2223 48.4448 54.2223H55.5559C55.5611 54.2219 55.568 54.2214 55.5732 54.2223C56.0646 54.2223 56.4621 53.8243 56.4621 53.3334C56.4621 53.2653 56.4552 53.1993 56.4404 53.1355ZM49.3337 34.6667L52.0003 39.1112L54.667 34.6667H49.3337ZM64.4448 47.1112H63.5116C63.147 42.3733 59.858 38.32 55.3693 36.951L54.4179 38.5335C58.3918 39.5378 61.3606 43.0044 61.7338 47.1112H60.8892C60.4005 47.1112 60.0003 47.5114 60.0003 48.0001C60.0003 48.4888 60.4005 48.889 60.8892 48.889H61.7338C61.3068 53.5734 57.5732 57.3069 52.8892 57.7336V56.889C52.8892 56.4003 52.489 56.0001 52.0003 56.0001C51.5116 56.0001 51.1114 56.4003 51.1114 56.889V57.7336C46.4274 57.3069 42.6939 53.5734 42.2668 48.889H43.1114C43.6002 48.889 44.0003 48.4888 44.0003 48.0001C44.0003 47.5114 43.6002 47.1112 43.1114 47.1112H42.2668C42.6401 43.0044 45.6088 39.5378 49.5828 38.5335L48.6314 36.951C44.1427 38.32 40.8536 42.3733 40.489 47.1112H39.5559C39.0672 47.1112 38.667 47.5114 38.667 48.0001C38.667 48.4888 39.0672 48.889 39.5559 48.889H40.489C40.9248 54.5513 45.4491 59.0756 51.1114 59.5114V60.4445C51.1114 60.9332 51.5116 61.3334 52.0003 61.3334C52.489 61.3334 52.8892 60.9332 52.8892 60.4445V59.5114C58.5515 59.0756 63.0758 54.5513 63.5116 48.889H64.4448C64.9335 48.889 65.3337 48.4888 65.3337 48.0001C65.3337 47.5114 64.9335 47.1112 64.4448 47.1112Z" fill="white"/>
</g>
<defs>
<filter id="filter0_d_196_4093" x="0" y="0" width="104" height="104" filterUnits="userSpaceOnUse" color-interpolation-filters="sRGB">
<feFlood flood-opacity="0" result="BackgroundImageFix"/>
<feColorMatrix in="SourceAlpha" type="matrix" values="0 0 0 0 0 0 0 0 0 0 0 0 0 0 0 0 0 0 127 0" result="hardAlpha"/>
<feOffset dy="4"/>
<feGaussianBlur stdDeviation="2"/>
<feComposite in2="hardAlpha" operator="out"/>
<feColorMatrix type="matrix" values="0 0 0 0 0 0 0 0 0 0 0 0 0 0 0 0 0 0 0.25 0"/>
<feBlend mode="normal" in2="BackgroundImageFix" result="effect1_dropShadow_196_4093"/>
<feBlend mode="normal" in="SourceGraphic" in2="effect1_dropShadow_196_4093" result="shape"/>
</filter>
</defs>
</svg>
