<svg width="96" height="96" viewBox="0 0 96 96" fill="none" xmlns="http://www.w3.org/2000/svg">
<rect width="96" height="96" rx="48" fill="black"/>
<path d="M54.947 61.3334H41.0537C37.5319 61.3334 34.667 58.4685 34.667 54.9476V41.0525C34.667 37.5316 37.5319 34.6667 41.0537 34.6667H54.9479C58.4688 34.6667 61.3337 37.5316 61.3337 41.0525V54.9476C61.3337 58.4685 58.4688 61.3334 54.947 61.3334ZM41.0537 36.4445C38.5123 36.4445 36.4448 38.5121 36.4448 41.0525V54.9476C36.4448 57.4881 38.5123 59.5556 41.0537 59.5556H54.9479C57.4883 59.5556 59.5559 57.4881 59.5559 54.9476V41.0525C59.5559 38.5121 57.4883 36.4445 54.947 36.4445H41.0537Z" fill="white"/>
<path d="M47.5564 43.5557C47.0649 43.5557 46.6675 43.9539 46.6675 44.4446V48.0001C46.6675 49.4703 45.6711 50.6668 44.4453 50.6668C43.2195 50.6668 42.2231 49.4703 42.2231 48.0001V44.4446C42.2231 43.9566 41.8222 43.5557 41.3342 43.5557C40.8462 43.5557 40.4453 43.9566 40.4453 44.4446V48.0001C40.4453 50.4508 42.24 52.4446 44.4453 52.4446C46.6506 52.4446 48.4453 50.4508 48.4453 48.0001V44.4446C48.4453 43.9539 48.048 43.5557 47.5564 43.5557Z" fill="white"/>
<path d="M53.4936 48.0001L55.4216 44.9156C55.682 44.4996 55.5549 43.9512 55.1398 43.6907C54.722 43.4303 54.1745 43.5583 53.9149 43.9734L52.4456 46.3236L50.9772 43.9743C50.7176 43.5574 50.17 43.4303 49.7523 43.6916C49.3363 43.9521 49.21 44.5005 49.4705 44.9165L51.3976 48.0001L49.4696 51.0845C49.2109 51.4978 49.338 52.0516 49.7514 52.3094C50.1647 52.5681 50.7176 52.4401 50.9763 52.0267L52.4456 49.6765L53.914 52.0258C54.1727 52.4392 54.7256 52.5672 55.1389 52.3085C55.5523 52.0498 55.6794 51.4969 55.4207 51.0836L53.4936 48.0001Z" fill="white"/>
</svg>
