<svg width="24" height="24" viewBox="0 0 24 24" fill="none" xmlns="http://www.w3.org/2000/svg">
<path d="M17.21 22H6.79C4.14867 22 2 19.8513 2 17.2107V6.78933C2 4.14867 4.14867 2 6.79 2H17.2107C19.8513 2 22 4.14867 22 6.78933V17.2107C22 19.8513 19.8513 22 17.21 22ZM6.79 3.33333C4.884 3.33333 3.33333 4.884 3.33333 6.78933V17.2107C3.33333 19.116 4.884 20.6667 6.79 20.6667H17.2107C19.116 20.6667 20.6667 19.116 20.6667 17.2107V6.78933C20.6667 4.884 19.116 3.33333 17.21 3.33333H6.79Z" fill="black"/>
<path d="M11.6673 8.66669C11.2987 8.66669 11.0007 8.96535 11.0007 9.33335V12C11.0007 13.1027 10.2533 14 9.33398 14C8.41465 14 7.66732 13.1027 7.66732 12V9.33335C7.66732 8.96735 7.36665 8.66669 7.00065 8.66669C6.63465 8.66669 6.33398 8.96735 6.33398 9.33335V12C6.33398 13.838 7.67998 15.3334 9.33398 15.3334C10.988 15.3334 12.334 13.838 12.334 12V9.33335C12.334 8.96535 12.036 8.66669 11.6673 8.66669Z" fill="black"/>
<path d="M16.12 12L17.566 9.68665C17.7613 9.37465 17.666 8.96332 17.3546 8.76798C17.0413 8.57265 16.6306 8.66865 16.436 8.97998L15.334 10.7426L14.2326 8.98065C14.038 8.66798 13.6273 8.57265 13.314 8.76865C13.002 8.96398 12.9073 9.37532 13.1026 9.68732L14.548 12L13.102 14.3133C12.908 14.6233 13.0033 15.0386 13.3133 15.232C13.6233 15.426 14.038 15.33 14.232 15.02L15.334 13.2573L16.4353 15.0193C16.6293 15.3293 17.044 15.4253 17.354 15.2313C17.664 15.0373 17.7593 14.6226 17.5653 14.3126L16.12 12Z" fill="black"/>
</svg>
