<svg width="30" height="30" viewBox="0 0 30 30" fill="none" xmlns="http://www.w3.org/2000/svg">
<path d="M15 0C6.72873 0 0 6.72873 0 15C0 23.2713 6.72873 30 15 30C23.2713 30 30 23.2713 30 15C30 6.72873 23.2713 0 15 0ZM21.25 21.25H8.74998C8.05875 21.25 7.5 20.69 7.5 20C7.5 19.31 8.05875 18.7501 8.74998 18.7501H21.25C21.9412 18.7501 22.4999 19.31 22.4999 20C22.5 20.69 21.9412 21.25 21.25 21.25ZM21.25 16.25H8.74998C8.05875 16.25 7.5 15.69 7.5 15C7.5 14.31 8.05875 13.75 8.74998 13.75H21.25C21.9412 13.75 22.4999 14.31 22.4999 15C22.4999 15.69 21.9412 16.25 21.25 16.25ZM21.25 11.25H8.74998C8.05875 11.25 7.5 10.69 7.5 10C7.5 9.31002 8.05875 8.75004 8.74998 8.75004H21.25C21.9412 8.75004 22.4999 9.31002 22.4999 10C22.4999 10.69 21.9412 11.25 21.25 11.25Z" fill="#A6A6A6"/>
</svg>
