<svg width="232" height="232" viewBox="0 0 232 232" fill="none" xmlns="http://www.w3.org/2000/svg">
<path d="M105.066 216.141L110.135 203.756L113.193 203.869L117.334 216.594L114.636 216.495L111.551 206.384L107.747 216.24L105.066 216.141Z" fill="black"/>
<path d="M99.6965 213.721C100.135 213.794 100.479 213.991 100.73 214.312C100.967 214.644 101.051 215.016 100.982 215.431C100.913 215.845 100.714 216.165 100.385 216.39C100.042 216.625 99.6509 216.706 99.2129 216.633C98.7749 216.56 98.4375 216.358 98.2005 216.027C97.9498 215.706 97.8588 215.338 97.9276 214.924C97.9964 214.509 98.2024 214.185 98.5455 213.95C98.8749 213.725 99.2585 213.648 99.6965 213.721ZM98.6659 212.346L100.299 202.508L102.785 202.921L101.152 212.758L98.6659 212.346Z" fill="black"/>
<path d="M84.1694 203.689C84.2716 203.344 84.3865 203.04 84.5143 202.778L91.5045 204.847C91.6513 204.14 91.5698 203.527 91.2598 203.01C90.9499 202.493 90.4842 202.142 89.8629 201.958C88.9654 201.693 88.2127 201.889 87.6048 202.548L84.9986 201.776C85.5472 200.937 86.3013 200.335 87.2608 199.968C88.217 199.613 89.2646 199.604 90.4038 199.941C91.3243 200.213 92.0931 200.66 92.7103 201.281C93.3126 201.909 93.7102 202.659 93.903 203.53C94.0844 204.397 94.0303 205.319 93.7408 206.297C93.4478 207.287 92.9893 208.096 92.3652 208.725C91.7411 209.354 91.007 209.762 90.1629 209.95C89.3187 210.138 88.4249 210.093 87.4814 209.813C86.5724 209.544 85.8191 209.109 85.2215 208.506C84.6124 207.9 84.2195 207.177 84.0429 206.336C83.8513 205.504 83.8935 204.621 84.1694 203.689ZM86.4677 205.121C86.2952 205.745 86.3732 206.307 86.7014 206.804C87.0263 207.313 87.5051 207.662 88.138 207.849C88.7363 208.026 89.2971 207.992 89.8203 207.746C90.3286 207.509 90.7242 207.081 91.007 206.464L86.4677 205.121Z" fill="black"/>
<path d="M65.3071 200.164L72.3091 192.489L74.7505 193.683L73.3219 200.739L78.0165 195.281L80.474 196.484L78.7268 206.731L76.4309 205.607L78.1848 198.009L73.1325 203.993L70.7396 202.822L72.3887 195.193L67.4736 201.224L65.3071 200.164Z" fill="black"/>
<path d="M58.6415 189.27C57.9809 190.031 57.2454 190.577 56.4351 190.906C55.6157 191.228 54.8101 191.323 54.0182 191.192C53.2173 191.053 52.4951 190.705 51.8516 190.146C51.2897 189.659 50.8986 189.121 50.6783 188.532C50.449 187.936 50.3568 187.355 50.4019 186.791L49.4699 187.865L47.5531 186.201L54.0888 178.67L56.0057 180.333L55.0501 181.434C55.6015 181.293 56.197 181.294 56.8365 181.436C57.4591 181.579 58.0514 181.894 58.6133 182.382C59.2477 182.932 59.6862 183.599 59.9287 184.381C60.1622 185.156 60.1774 185.971 59.9743 186.828C59.7543 187.686 59.3101 188.5 58.6415 189.27ZM52.7378 184.099C52.3367 184.561 52.0852 185.034 51.9833 185.518C51.8736 186.01 51.8981 186.477 52.0568 186.916C52.2077 187.365 52.4598 187.743 52.8133 188.049C53.1667 188.356 53.5677 188.553 54.0162 188.64C54.4648 188.728 54.9297 188.686 55.411 188.516C55.8754 188.347 56.3042 188.036 56.6975 187.583C57.0907 187.13 57.3462 186.652 57.4638 186.151C57.5644 185.65 57.5439 185.179 57.4021 184.739C57.2512 184.29 57.0036 183.916 56.6592 183.617C56.3058 183.311 55.9002 183.11 55.4426 183.014C54.9772 182.928 54.5123 182.97 54.0479 183.139C53.5756 183.317 53.1389 183.637 52.7378 184.099Z" fill="black"/>
<path d="M39.5839 182.407L49.5236 173.54L51.2011 175.421L41.2615 184.288L39.5839 182.407Z" fill="black"/>
<path d="M33.5188 174.707L44.2691 166.843L45.757 168.877L35.0066 176.741L33.5188 174.707Z" fill="black"/>
<path d="M35.7938 151.615C36.1333 152.357 36.3069 153.082 36.3147 153.791C36.3115 154.506 36.1606 155.142 35.8621 155.701C35.5586 156.249 35.1361 156.667 34.5945 156.954L33.5385 154.646C33.8677 154.443 34.0795 154.141 34.1739 153.742C34.2632 153.331 34.2055 152.902 34.0008 152.455C33.8011 152.019 33.559 151.72 33.2746 151.56C32.9852 151.389 32.7041 151.366 32.4313 151.491C32.1366 151.625 31.9883 151.878 31.9862 152.249C31.9683 152.613 32.0218 153.163 32.1468 153.897C32.2927 154.649 32.3782 155.283 32.4033 155.799C32.4234 156.304 32.3258 156.798 32.1105 157.279C31.8902 157.749 31.4746 158.124 30.8635 158.404C30.3615 158.633 29.8383 158.701 29.2939 158.607C28.7444 158.502 28.2273 158.238 27.7426 157.813C27.2529 157.377 26.8408 156.794 26.5063 156.062C26.012 154.982 25.8903 153.995 26.1413 153.102C26.3815 152.213 26.9448 151.527 27.8315 151.042L28.835 153.235C28.4899 153.433 28.2761 153.715 28.1936 154.083C28.0952 154.445 28.1483 154.849 28.3531 155.297C28.5428 155.711 28.7665 155.998 29.0241 156.157C29.2767 156.306 29.5394 156.318 29.8122 156.193C30.1177 156.053 30.2825 155.793 30.3063 155.412C30.3193 155.037 30.2603 154.49 30.1294 153.771C29.9935 153.042 29.9155 152.424 29.8954 151.919C29.8753 151.413 29.9808 150.923 30.212 150.447C30.4273 149.966 30.8325 149.583 31.4277 149.297C31.9515 149.058 32.4881 148.99 33.0375 149.095C33.582 149.189 34.0991 149.454 34.5888 149.89C35.0626 150.32 35.4643 150.895 35.7938 151.615Z" fill="black"/>
<path d="M25.1333 137.081C25.4784 136.979 25.7959 136.91 26.0857 136.874L28.1582 143.863C28.8315 143.601 29.3005 143.199 29.5655 142.657C29.8304 142.116 29.8708 141.534 29.6865 140.913C29.4204 140.016 28.8457 139.491 27.9623 139.34L27.1895 136.734C28.1918 136.738 29.108 137.042 29.9383 137.647C30.757 138.255 31.3353 139.129 31.673 140.268C31.9459 141.188 31.9902 142.076 31.8059 142.932C31.6067 143.779 31.1946 144.521 30.5696 145.157C29.9412 145.781 29.138 146.239 28.1601 146.529C27.1707 146.822 26.2424 146.878 25.3752 146.697C24.5079 146.517 23.7655 146.123 23.1479 145.518C22.5303 144.913 22.0817 144.138 21.8019 143.195C21.5324 142.286 21.4874 141.417 21.6671 140.588C21.8433 139.747 22.2358 139.023 22.8446 138.417C23.4385 137.803 24.2014 137.358 25.1333 137.081ZM25.185 139.788C24.5672 139.984 24.139 140.355 23.9005 140.902C23.6505 141.451 23.6193 142.043 23.8069 142.675C23.9843 143.274 24.3185 143.725 24.8095 144.03C25.2856 144.327 25.8594 144.426 26.5309 144.327L25.185 139.788Z" fill="black"/>
<path d="M20.7568 130.494C20.1849 130.256 19.7105 129.905 19.3339 129.442C18.9554 128.967 18.7139 128.398 18.6093 127.734L21.2231 127.322L21.3267 127.98C21.4499 128.763 21.727 129.326 22.158 129.672C22.5871 130.005 23.258 130.1 24.1707 129.956L29.0782 129.183L29.4703 131.672L19.6198 133.224L19.2277 130.734L20.7568 130.494Z" fill="black"/>
<path d="M25.781 117.664L18.0621 115.364L17.9854 112.683L28.0588 116.086L28.1463 119.145L18.2834 123.101L18.2062 120.402L25.781 117.664Z" fill="black"/>
<path d="M17.3417 106.999C17.3017 107.441 17.1307 107.799 16.8288 108.073C16.516 108.334 16.1505 108.446 15.7322 108.408C15.3139 108.37 14.9803 108.195 14.7314 107.884C14.4716 107.559 14.3617 107.175 14.4017 106.733C14.4417 106.291 14.6181 105.939 14.9309 105.679C15.2328 105.405 15.5929 105.287 16.0112 105.324C16.4295 105.362 16.7685 105.544 17.0283 105.868C17.2772 106.18 17.3817 106.557 17.3417 106.999ZM18.6368 105.869L28.5682 106.768L28.3411 109.278L18.4097 108.379L18.6368 105.869Z" fill="black"/>
<path d="M24.324 100.526C23.3145 100.312 22.4777 99.9193 21.8136 99.349C21.1377 98.7763 20.6716 98.0824 20.4151 97.2674C20.147 96.45 20.1125 95.5717 20.3118 94.6326C20.5683 93.4235 21.0852 92.4905 21.8625 91.8335C22.6305 91.1623 23.589 90.8075 24.738 90.7692L24.1739 93.428C23.7214 93.4792 23.3417 93.6501 23.0347 93.9407C22.7184 94.2171 22.508 94.6018 22.4034 95.0948C22.2539 95.7991 22.3939 96.4115 22.8232 96.9319C23.2408 97.4499 23.9191 97.8085 24.8582 98.0078C25.7856 98.2045 26.5511 98.1523 27.1548 97.851C27.7467 97.5473 28.1174 97.0432 28.2668 96.3389C28.4785 95.3411 28.1707 94.595 27.3433 94.1005L27.9075 91.4417C28.9067 91.9358 29.6326 92.648 30.0854 93.5782C30.5382 94.5085 30.6376 95.5723 30.3835 96.7696C30.1843 97.7087 29.802 98.4986 29.2368 99.1392C28.6597 99.7773 27.952 100.222 27.1136 100.474C26.2634 100.723 25.3335 100.74 24.324 100.526Z" fill="black"/>
<path d="M30.6255 78.4244C30.9632 78.5493 31.2587 78.6843 31.5122 78.8292L28.9829 85.6664C29.679 85.8599 30.2954 85.8193 30.8321 85.5444C31.3688 85.2695 31.7495 84.8282 31.9744 84.2205C32.2991 83.3426 32.1531 82.5785 31.5365 81.9282L32.4795 79.379C33.2799 79.9822 33.8312 80.7747 34.1333 81.7565C34.4242 82.7342 34.3636 83.7801 33.9514 84.8943C33.6183 85.7947 33.1216 86.5321 32.4612 87.1067C31.7938 87.6659 31.0193 88.0127 30.1379 88.1472C29.2606 88.2705 28.3437 88.1552 27.387 87.8013C26.4191 87.4433 25.6423 86.9319 25.0565 86.2674C24.4706 85.6029 24.1119 84.8432 23.9803 83.9885C23.8487 83.1337 23.9536 82.2449 24.295 81.322C24.6239 80.4329 25.1087 79.7102 25.7495 79.154C26.3945 78.5865 27.1422 78.2426 27.9928 78.1222C28.8363 77.9865 29.7139 78.0872 30.6255 78.4244ZM29.0447 80.6225C28.4328 80.4089 27.8677 80.4494 27.3493 80.7438C26.8197 81.0341 26.4404 81.4887 26.2114 82.1077C25.9949 82.693 25.9918 83.2548 26.2021 83.7932C26.4052 84.3162 26.8053 84.7393 27.4022 85.0624L29.0447 80.6225Z" fill="black"/>
<path d="M39.2599 73.4413C38.8722 74.1593 38.3976 74.735 37.8363 75.1683C37.2644 75.5959 36.6655 75.8589 36.0396 75.9573C35.4194 76.0451 34.8315 75.9595 34.2759 75.7003L35.4819 73.4672C35.8425 73.6074 36.2107 73.5948 36.5864 73.4295C36.9678 73.2536 37.2754 72.9492 37.5092 72.5163C37.7373 72.094 37.8296 71.721 37.7861 71.3975C37.7483 71.0634 37.5974 70.8251 37.3334 70.6825C37.0484 70.5286 36.7574 70.5623 36.4604 70.7839C36.1587 70.9891 35.7522 71.3629 35.2412 71.9052C34.7293 72.4743 34.2748 72.9244 33.8778 73.2555C33.4865 73.5761 33.0339 73.7953 32.5201 73.9134C32.012 74.0208 31.4623 73.9149 30.871 73.5956C30.3853 73.3333 30.016 72.9565 29.763 72.4653C29.5158 71.9636 29.4157 71.3913 29.4628 70.7484C29.5156 70.0951 29.733 69.4146 30.1151 68.7072C30.6796 67.6619 31.394 66.9703 32.2584 66.6325C33.1122 66.2889 33.9996 66.325 34.9208 66.7406L33.7746 68.8629C33.4091 68.7064 33.0548 68.706 32.7116 68.8616C32.3636 69.0009 32.0727 69.2871 31.8389 69.72C31.6222 70.1212 31.5279 70.4726 31.556 70.7742C31.5897 71.0652 31.7386 71.282 32.0026 71.4245C32.2982 71.5842 32.6051 71.559 32.9231 71.3488C33.2306 71.133 33.6317 70.7564 34.1265 70.219C34.627 69.671 35.073 69.2367 35.4643 68.9162C35.8556 68.5956 36.3106 68.3844 36.8292 68.2827C37.343 68.1647 37.8931 68.2572 38.4796 68.5602C38.9864 68.8339 39.3634 69.2217 39.6107 69.7234C39.8637 70.2147 39.9637 70.7869 39.9109 71.4403C39.8533 72.0775 39.6363 72.7445 39.2599 73.4413Z" fill="black"/>
<path d="M40.1813 49.721L46.6334 55.5553L45.2618 57.177L38.4261 51.7963L40.1813 49.721ZM49.1985 59.0449C48.904 59.3931 48.5545 59.5926 48.1501 59.6434C47.7442 59.6773 47.3809 59.5587 47.0602 59.2875C46.7395 59.0162 46.5668 58.6815 46.5421 58.2834C46.5159 57.8684 46.6501 57.4868 46.9445 57.1386C47.2313 56.7996 47.5775 56.6131 47.9834 56.5792C48.3801 56.5375 48.7388 56.6523 49.0595 56.9236C49.3802 57.1948 49.5575 57.5333 49.5914 57.9392C49.6162 58.3373 49.4852 58.7059 49.1985 59.0449Z" fill="black"/>
<path d="M63.3042 45.84C62.5418 46.4233 61.728 46.7815 60.8628 46.9147C59.9904 47.0382 59.1408 46.9252 58.3143 46.5755C57.4972 46.2185 56.7788 45.635 56.159 44.8249C55.5392 44.0148 55.1686 43.1651 55.0473 42.2758C54.9355 41.3792 55.0617 40.5272 55.426 39.7196C55.783 38.9026 56.3427 38.2024 57.1051 37.619C57.8675 37.0357 58.6898 36.6786 59.5717 36.5477C60.4464 36.4073 61.2971 36.5119 62.1236 36.8616C62.9598 37.204 63.6877 37.7803 64.3075 38.5904C64.9273 39.4005 65.2883 40.2575 65.3906 41.1613C65.5024 42.0579 65.3751 42.9184 65.0086 43.7427C64.6443 44.5503 64.0762 45.2493 63.3042 45.84ZM61.9698 44.0959C62.332 43.8188 62.6047 43.4742 62.7879 43.062C62.9734 42.633 63.0266 42.1693 62.9474 41.6708C62.8682 41.1723 62.6354 40.6705 62.2489 40.1654C61.6729 39.4125 61.0316 38.989 60.3251 38.895C59.6208 38.7841 58.9827 38.9475 58.4109 39.385C57.8391 39.8225 57.5146 40.3956 57.4374 41.1044C57.3624 41.7964 57.6129 42.5188 58.189 43.2717C58.765 44.0246 59.3956 44.4638 60.0809 44.5892C60.7683 44.6978 61.398 44.5334 61.9698 44.0959Z" fill="black"/>
<path d="M70.5023 31.6314L68.9919 32.5072L72.9555 39.3432L70.7443 40.6254L66.7807 33.7893L65.7997 34.3582L64.7613 32.5674L65.7424 31.9986L65.4896 31.5626C64.8756 30.5037 64.7252 29.5505 65.0384 28.7031C65.3516 27.8557 66.1245 27.0954 67.3571 26.4223L68.4225 28.2598C67.8871 28.5564 67.5697 28.8583 67.4704 29.1656C67.3712 29.4728 67.463 29.8704 67.7459 30.3583L67.9535 30.7165L69.464 29.8407L70.5023 31.6314Z" fill="black"/>
<path d="M79.6503 27.3049L78.0559 28.0166L81.2767 35.2324L78.9427 36.2742L75.7219 29.0584L74.6864 29.5206L73.8426 27.6303L74.8782 27.1681L74.6727 26.7079C74.1739 25.5902 74.1248 24.6265 74.5256 23.8168C74.9264 23.0071 75.7751 22.3326 77.0719 21.7932L77.9376 23.7328C77.3739 23.9713 77.0264 24.238 76.8953 24.5331C76.7642 24.8282 76.8136 25.2332 77.0435 25.7483L77.2122 26.1263L78.8066 25.4146L79.6503 27.3049Z" fill="black"/>
<path d="M94.5632 25.2204C94.6669 25.5651 94.7372 25.8823 94.7742 26.1719L87.7932 28.2717C88.058 28.9439 88.4618 29.4114 89.0045 29.6743C89.5472 29.9371 90.1288 29.9752 90.7494 29.7885C91.6457 29.5189 92.1677 28.9421 92.3153 28.0581L94.9181 27.2752C94.9188 28.2775 94.6183 29.1949 94.0167 30.0275C93.4115 30.8486 92.5401 31.4303 91.4025 31.7725C90.4832 32.049 89.5953 32.0968 88.7389 31.9158C87.8905 31.7198 87.1471 31.3106 86.5087 30.6881C85.8819 30.0621 85.4215 29.2608 85.1278 28.284C84.8305 27.2957 84.7706 26.3676 84.9482 25.4997C85.1257 24.6318 85.516 23.8879 86.119 23.2679C86.7219 22.6479 87.4946 22.1962 88.4369 21.9128C89.3447 21.6397 90.2136 21.5914 91.0436 21.7678C91.8851 21.9408 92.61 22.3305 93.2185 22.9369C93.835 23.5284 94.2832 24.2895 94.5632 25.2204ZM91.8564 25.2827C91.6583 24.6656 91.2856 24.2388 90.7383 24.0025C90.1876 23.7546 89.5962 23.7257 88.9642 23.9158C88.3666 24.0956 87.9163 24.4315 87.6132 24.9237C87.3181 25.4009 87.2214 25.9751 87.3231 26.6462L91.8564 25.2827Z" fill="black"/>
<path d="M101.14 20.8221C101.375 20.2491 101.724 19.7735 102.186 19.395C102.659 19.0147 103.227 18.7709 103.891 18.6638L104.313 21.2759L103.655 21.3821C102.873 21.5084 102.311 21.7877 101.967 22.22C101.636 22.6504 101.543 23.3217 101.691 24.2338L102.483 29.1383L99.9952 29.5401L98.4051 19.6957L100.893 19.2939L101.14 20.8221Z" fill="black"/>
<path d="M111.153 28.3519C110.698 28.3788 110.312 28.2633 109.997 28.0054C109.692 27.7349 109.527 27.39 109.503 26.9707C109.478 26.5514 109.601 26.1955 109.873 25.9031C110.155 25.5979 110.524 25.4319 110.979 25.4051C111.422 25.3789 111.796 25.5011 112.101 25.7717C112.404 26.0302 112.569 26.3692 112.593 26.7884C112.618 27.2077 112.495 27.5696 112.225 27.874C111.953 28.1665 111.596 28.3258 111.153 28.3519Z" fill="black"/>
<path d="M121.923 25.9609L124.864 18.4625L127.542 18.6114L123.304 28.3632L120.249 28.1934L117.136 18.0329L119.832 18.1828L121.923 25.9609Z" fill="black"/>
<path d="M133.266 18.4503C132.828 18.3732 132.486 18.1728 132.238 17.8489C132.005 17.5153 131.924 17.1417 131.997 16.7281C132.07 16.3145 132.272 15.9967 132.604 15.7749C132.949 15.5433 133.34 15.466 133.778 15.543C134.215 15.6201 134.55 15.8254 134.784 16.159C135.032 16.4828 135.119 16.8516 135.046 17.2652C134.973 17.6789 134.764 18.0015 134.419 18.233C134.087 18.4549 133.703 18.5273 133.266 18.4503ZM134.283 19.8357L132.553 29.6565L130.071 29.2193L131.801 19.3985L134.283 19.8357Z" fill="black"/>
<path d="M148.673 28.6373C148.567 28.9814 148.449 29.2842 148.319 29.5454L141.349 27.4077C141.195 28.1136 141.271 28.7267 141.576 29.247C141.881 29.7673 142.343 30.1224 142.962 30.3124C143.857 30.5869 144.612 30.3979 145.226 29.7453L147.825 30.5424C147.268 31.3757 146.508 31.971 145.545 32.3283C144.585 32.6741 143.537 32.6729 142.402 32.3245C141.484 32.043 140.719 31.5888 140.108 30.9621C139.512 30.3274 139.122 29.5739 138.938 28.7015C138.765 27.8326 138.828 26.9106 139.127 25.9354C139.43 24.9488 139.896 24.1442 140.527 23.5216C141.157 22.8991 141.895 22.4979 142.741 22.318C143.587 22.1382 144.48 22.1925 145.421 22.4811C146.327 22.7591 147.076 23.2022 147.668 23.8104C148.271 24.4222 148.657 25.1493 148.825 25.9917C149.008 26.8261 148.958 27.708 148.673 28.6373ZM146.388 27.1836C146.567 26.5605 146.495 25.9986 146.171 25.4977C145.851 24.9854 145.376 24.6325 144.745 24.439C144.148 24.256 143.587 24.2847 143.062 24.5252C142.551 24.7576 142.151 25.181 141.863 25.7954L146.388 27.1836Z" fill="black"/>
<path d="M167.522 32.3426L160.445 39.9491L158.016 38.7306L159.514 31.6888L154.766 37.1006L152.32 35.874L154.168 25.6449L156.453 26.7907L154.624 34.3715L159.735 28.4369L162.116 29.6312L160.392 37.2443L165.366 31.2613L167.522 32.3426Z" fill="black"/>
<path d="M174.074 43.3001C174.742 42.5453 175.483 42.0071 176.297 41.6855C177.119 41.3718 177.926 41.2845 178.716 41.4233C179.516 41.5701 180.234 41.9259 180.872 42.4906C181.429 42.9837 181.815 43.5255 182.03 44.116C182.253 44.7145 182.34 45.2958 182.289 45.86L183.231 44.7952L185.132 46.4774L178.523 53.9444L176.622 52.2622L177.588 51.1705C177.036 51.3062 176.44 51.2999 175.802 51.1518C175.181 51.0026 174.592 50.6815 174.035 50.1883C173.406 49.6316 172.974 48.9608 172.739 48.176C172.513 47.3992 172.506 46.5835 172.717 45.729C172.946 44.8735 173.398 44.0639 174.074 43.3001ZM179.927 48.5287C180.332 48.0704 180.589 47.6 180.695 47.1175C180.81 46.6259 180.79 46.1596 180.635 45.7184C180.489 45.2683 180.241 44.8881 179.89 44.5779C179.54 44.2677 179.141 44.0668 178.693 43.975C178.245 43.8833 177.78 43.9201 177.297 44.0856C176.831 44.25 176.399 44.5568 176.002 45.0061C175.604 45.4554 175.344 45.9303 175.221 46.4308C175.116 46.9303 175.132 47.4012 175.269 47.8434C175.415 48.2935 175.659 48.6697 176.001 48.9719C176.351 49.2821 176.755 49.487 177.211 49.5867C177.676 49.6775 178.141 49.6406 178.607 49.4762C179.081 49.3028 179.521 48.987 179.927 48.5287Z" fill="black"/>
<path d="M193.064 50.3553L183.038 59.1245L181.379 57.2276L191.405 48.4585L193.064 50.3553Z" fill="black"/>
<path d="M199.049 58.1141L188.222 65.8728L186.754 63.8244L197.581 56.0657L199.049 58.1141Z" fill="black"/>
<path d="M196.542 81.1779C196.21 80.4326 196.044 79.7054 196.043 78.9962C196.053 78.2822 196.21 77.6473 196.514 77.0913C196.823 76.5464 197.25 76.1329 197.794 75.8508L198.827 78.1689C198.496 78.3691 198.281 78.6685 198.183 79.067C198.09 79.4765 198.143 79.9059 198.344 80.3553C198.539 80.7937 198.778 81.0944 199.061 81.2574C199.349 81.4313 199.63 81.4572 199.904 81.3351C200.199 81.2031 200.35 80.952 200.356 80.5816C200.378 80.2172 200.329 79.6672 200.212 78.9314C200.073 78.1785 199.994 77.5438 199.974 77.0273C199.959 76.5216 200.061 76.0293 200.281 75.5502C200.506 75.0821 200.925 74.7112 201.539 74.4376C202.043 74.2129 202.567 74.1502 203.111 74.2495C203.659 74.3598 204.174 74.6297 204.654 75.0593C205.139 75.4998 205.546 76.0873 205.873 76.8216C206.357 77.9067 206.469 78.8947 206.209 79.7857C205.96 80.6717 205.39 81.3528 204.499 81.829L203.517 79.6259C203.864 79.4318 204.08 79.1514 204.166 78.7845C204.268 78.4237 204.219 78.0187 204.019 77.5693C203.833 77.1528 203.612 76.8637 203.356 76.7019C203.105 76.5511 202.843 76.5368 202.569 76.6589C202.262 76.7957 202.094 77.0542 202.067 77.4344C202.05 77.8096 202.104 78.3573 202.228 79.0772C202.356 79.8081 202.428 80.4264 202.443 80.932C202.459 81.4377 202.348 81.927 202.112 82.4C201.892 82.8791 201.483 83.2584 200.886 83.5381C200.359 83.7726 199.822 83.8347 199.274 83.7245C198.73 83.6251 198.216 83.3552 197.73 82.9147C197.261 82.4802 196.865 81.9013 196.542 81.1779Z" fill="black"/>
<path d="M207.068 95.8202C206.722 95.9192 206.404 95.9852 206.113 96.0182L204.11 89.009C203.434 89.2646 202.961 89.6619 202.691 90.201C202.42 90.74 202.374 91.3211 202.552 91.9441C202.81 92.844 203.379 93.3739 204.261 93.5336L205.008 96.1469C204.006 96.1339 203.093 95.8209 202.269 95.2078C201.456 94.5915 200.886 93.7122 200.56 92.57C200.296 91.647 200.26 90.7585 200.453 89.9047C200.661 89.059 201.08 88.3213 201.711 87.6916C202.346 87.0733 203.153 86.624 204.134 86.3436C205.126 86.06 206.055 86.0128 206.92 86.2022C207.786 86.3916 208.524 86.7921 209.136 87.4035C209.748 88.0149 210.189 88.7937 210.459 89.7398C210.72 90.6512 210.756 91.5207 210.568 92.3482C210.384 93.1873 209.984 93.9068 209.37 94.5069C208.77 95.1153 208.002 95.553 207.068 95.8202ZM207.043 93.1128C207.662 92.9232 208.094 92.5563 208.338 92.0123C208.593 91.4651 208.63 90.8741 208.449 90.2396C208.278 89.6396 207.948 89.1847 207.46 88.8749C206.987 88.5733 206.414 88.4688 205.741 88.5612L207.043 93.1128Z" fill="black"/>
<path d="M211.376 102.445C211.946 102.689 212.417 103.044 212.789 103.51C213.162 103.989 213.398 104.561 213.496 105.226L210.879 105.612L210.782 104.953C210.666 104.169 210.394 103.603 209.967 103.253C209.541 102.916 208.871 102.815 207.957 102.949L203.042 103.674L202.675 101.181L212.54 99.7263L212.907 102.219L211.376 102.445Z" fill="black"/>
<path d="M206.233 115.23L213.929 117.605L213.98 120.287L203.94 116.785L203.883 113.726L213.784 109.867L213.835 112.566L206.233 115.23Z" fill="black"/>
<path d="M214.562 125.976C214.606 125.534 214.781 125.178 215.085 124.907C215.401 124.649 215.767 124.541 216.185 124.583C216.603 124.625 216.935 124.803 217.181 125.117C217.437 125.444 217.543 125.829 217.499 126.271C217.455 126.712 217.275 127.062 216.96 127.32C216.655 127.591 216.294 127.705 215.876 127.664C215.458 127.622 215.121 127.437 214.864 127.11C214.618 126.796 214.518 126.418 214.562 125.976ZM213.256 127.093L203.334 126.097L203.585 123.589L213.507 124.586L213.256 127.093Z" fill="black"/>
<path d="M207.521 132.382C208.528 132.606 209.361 133.006 210.02 133.583C210.69 134.162 211.149 134.861 211.398 135.678C211.658 136.498 211.684 137.377 211.475 138.314C211.207 139.52 210.681 140.448 209.897 141.098C209.122 141.761 208.16 142.107 207.011 142.134L207.601 139.481C208.054 139.434 208.436 139.267 208.746 138.979C209.065 138.706 209.279 138.323 209.388 137.831C209.545 137.128 209.411 136.515 208.986 135.99C208.574 135.468 207.899 135.103 206.962 134.894C206.037 134.688 205.271 134.733 204.664 135.028C204.069 135.326 203.694 135.827 203.537 136.53C203.316 137.525 203.616 138.274 204.439 138.777L203.848 141.43C202.854 140.926 202.135 140.207 201.692 139.272C201.248 138.338 201.159 137.273 201.425 136.078C201.633 135.141 202.023 134.355 202.595 133.72C203.178 133.087 203.89 132.65 204.731 132.406C205.584 132.166 206.514 132.158 207.521 132.382Z" fill="black"/>
<path d="M201 154.42C200.663 154.291 200.369 154.154 200.117 154.006L202.713 147.194C202.019 146.994 201.403 147.028 200.863 147.298C200.324 147.568 199.939 148.005 199.708 148.611C199.375 149.485 199.513 150.251 200.123 150.907L199.155 153.447C198.361 152.836 197.817 152.038 197.525 151.053C197.244 150.073 197.315 149.028 197.738 147.917C198.08 147.02 198.583 146.288 199.249 145.72C199.922 145.167 200.7 144.828 201.583 144.702C202.461 144.587 203.377 144.712 204.33 145.075C205.295 145.443 206.066 145.961 206.646 146.632C207.225 147.302 207.576 148.065 207.699 148.921C207.823 149.777 207.709 150.665 207.359 151.584C207.021 152.47 206.529 153.188 205.883 153.738C205.232 154.299 204.481 154.636 203.629 154.748C202.785 154.875 201.908 154.766 201 154.42ZM202.602 152.237C203.212 152.457 203.777 152.422 204.299 152.133C204.831 151.847 205.215 151.397 205.45 150.78C205.672 150.197 205.681 149.635 205.476 149.095C205.278 148.57 204.882 148.143 204.288 147.814L202.602 152.237Z" fill="black"/>
<path d="M192.311 159.316C192.706 158.602 193.186 158.031 193.751 157.603C194.327 157.182 194.929 156.924 195.556 156.832C196.177 156.75 196.764 156.842 197.317 157.106L196.089 159.328C195.73 159.184 195.361 159.193 194.984 159.354C194.601 159.527 194.291 159.828 194.053 160.259C193.82 160.679 193.724 161.051 193.765 161.375C193.799 161.709 193.948 161.949 194.21 162.094C194.494 162.251 194.785 162.22 195.084 162.001C195.388 161.799 195.798 161.429 196.314 160.892C196.832 160.328 197.291 159.882 197.691 159.555C198.085 159.238 198.54 159.024 199.055 158.911C199.564 158.808 200.113 158.919 200.701 159.244C201.184 159.512 201.55 159.892 201.798 160.386C202.04 160.89 202.135 161.463 202.081 162.105C202.022 162.758 201.798 163.436 201.409 164.14C200.834 165.18 200.113 165.864 199.245 166.194C198.388 166.529 197.501 166.484 196.584 166.059L197.751 163.948C198.115 164.109 198.469 164.112 198.814 163.96C199.163 163.824 199.457 163.541 199.695 163.11C199.916 162.711 200.013 162.361 199.988 162.059C199.957 161.768 199.811 161.549 199.548 161.404C199.254 161.242 198.947 161.264 198.627 161.471C198.317 161.684 197.913 162.056 197.412 162.589C196.907 163.132 196.456 163.562 196.062 163.879C195.668 164.195 195.211 164.402 194.691 164.499C194.176 164.612 193.627 164.514 193.043 164.205C192.539 163.926 192.166 163.535 191.924 163.031C191.676 162.537 191.581 161.964 191.64 161.311C191.704 160.674 191.928 160.01 192.311 159.316Z" fill="black"/>
<path d="M191.245 180.447C191.534 180.11 191.88 179.916 192.285 179.868C192.691 179.836 193.054 179.957 193.373 180.23C193.692 180.503 193.863 180.838 193.886 181.237C193.91 181.652 193.777 182.028 193.489 182.366C193.2 182.703 192.853 182.888 192.447 182.919C192.042 182.968 191.68 182.856 191.361 182.583C191.042 182.31 190.87 181.966 190.846 181.551C190.824 181.152 190.957 180.784 191.245 180.447ZM189.535 180.619L181.956 174.138L183.594 172.223L191.173 178.704L189.535 180.619Z" fill="black"/>
<path d="M168.621 186.221C169.384 185.639 170.198 185.281 171.063 185.149C171.936 185.027 172.785 185.14 173.611 185.491C174.428 185.849 175.146 186.433 175.765 187.244C176.384 188.054 176.754 188.905 176.874 189.794C176.985 190.691 176.858 191.543 176.493 192.35C176.135 193.166 175.574 193.866 174.811 194.449C174.048 195.031 173.226 195.387 172.344 195.517C171.469 195.657 170.618 195.551 169.792 195.201C168.956 194.858 168.229 194.281 167.61 193.47C166.991 192.659 166.631 191.802 166.529 190.898C166.419 190.001 166.547 189.141 166.914 188.317C167.279 187.51 167.848 186.811 168.621 186.221ZM169.953 187.967C169.591 188.244 169.318 188.588 169.134 189C168.948 189.429 168.895 189.892 168.973 190.391C169.052 190.89 169.284 191.392 169.67 191.897C170.245 192.651 170.886 193.075 171.593 193.169C172.297 193.281 172.935 193.118 173.507 192.681C174.08 192.244 174.405 191.672 174.483 190.963C174.558 190.271 174.309 189.548 173.733 188.795C173.158 188.041 172.528 187.602 171.843 187.475C171.155 187.366 170.526 187.53 169.953 187.967Z" fill="black"/>
<path d="M161.407 200.422L162.918 199.547L158.961 192.707L161.174 191.427L165.131 198.267L166.112 197.7L167.149 199.491L166.167 200.059L166.419 200.495C167.032 201.555 167.182 202.508 166.868 203.355C166.554 204.202 165.78 204.962 164.547 205.634L163.483 203.795C164.019 203.499 164.336 203.198 164.436 202.89C164.536 202.583 164.444 202.186 164.162 201.697L163.955 201.339L162.443 202.213L161.407 200.422Z" fill="black"/>
<path d="M152.253 204.739L153.848 204.029L150.635 196.81L152.97 195.771L156.183 202.99L157.219 202.529L158.061 204.42L157.025 204.881L157.23 205.341C157.728 206.459 157.776 207.423 157.374 208.232C156.973 209.042 156.123 209.715 154.826 210.253L153.962 208.313C154.526 208.075 154.874 207.809 155.005 207.514C155.137 207.219 155.088 206.814 154.858 206.298L154.69 205.92L153.095 206.63L152.253 204.739Z" fill="black"/>
<path d="M137.338 206.809C137.234 206.464 137.164 206.147 137.128 205.857L144.111 203.764C143.847 203.092 143.443 202.624 142.901 202.361C142.359 202.097 141.777 202.059 141.156 202.245C140.26 202.513 139.737 203.09 139.589 203.973L136.985 204.754C136.985 203.751 137.287 202.834 137.889 202.002C138.495 201.182 139.367 200.601 140.505 200.26C141.425 199.984 142.313 199.938 143.169 200.119C144.017 200.316 144.76 200.726 145.398 201.349C146.024 201.976 146.483 202.778 146.776 203.755C147.073 204.743 147.131 205.672 146.953 206.539C146.775 207.407 146.384 208.151 145.78 208.77C145.176 209.389 144.403 209.84 143.461 210.123C142.553 210.395 141.684 210.442 140.854 210.265C140.013 210.091 139.288 209.701 138.68 209.094C138.064 208.502 137.617 207.74 137.338 206.809ZM140.045 206.749C140.242 207.367 140.614 207.794 141.161 208.031C141.712 208.279 142.303 208.309 142.935 208.119C143.533 207.94 143.984 207.605 144.287 207.113C144.583 206.636 144.68 206.062 144.579 205.39L140.045 206.749Z" fill="black"/>
<path d="M130.768 211.201C130.531 211.773 130.182 212.249 129.72 212.627C129.247 213.007 128.678 213.25 128.014 213.356L127.595 210.744L128.253 210.638C129.035 210.513 129.598 210.234 129.942 209.802C130.274 209.372 130.367 208.701 130.22 207.788L129.433 202.883L131.921 202.484L133.501 212.33L131.013 212.729L130.768 211.201Z" fill="black"/>
<path d="M113.039 203.736C113.494 203.749 113.868 203.899 114.16 204.184C114.439 204.48 114.572 204.838 114.559 205.258C114.547 205.678 114.392 206.021 114.096 206.289C113.788 206.568 113.405 206.7 112.95 206.686C112.506 206.673 112.144 206.518 111.865 206.221C111.586 205.937 111.452 205.585 111.465 205.165C111.477 204.745 111.632 204.396 111.929 204.116C112.225 203.849 112.595 203.722 113.039 203.736Z" fill="black"/>
<path d="M127 107L107 127M127 107H110.333M127 107V123.667" stroke="#8873F0" stroke-width="2" stroke-linecap="round" stroke-linejoin="round"/>
<rect x="81" y="81" width="72" height="72" rx="36" stroke="#FCDA69"/>
<rect x="47" y="47" width="140" height="140" rx="70" stroke="black" stroke-width="2"/>
<rect x="1" y="1" width="230" height="230" rx="115" stroke="black" stroke-width="2"/>
</svg>
