<svg width="104" height="104" viewBox="0 0 104 104" fill="none" xmlns="http://www.w3.org/2000/svg">
<g filter="url(#filter0_d_196_4099)">
<rect x="4" width="96" height="96" rx="48" fill="black"/>
<path d="M65.1856 47.0314C62.4216 43.21 57.143 38.8955 52.0003 38.8955C46.9014 38.8955 41.6244 43.1476 38.815 47.0314C38.6176 47.3048 38.6176 47.6735 38.815 47.947C41.5791 51.7683 46.8577 56.0828 52.0003 56.0828C57.0992 56.0828 62.3763 51.8308 65.1856 47.947C65.383 47.6735 65.383 47.3048 65.1856 47.0314ZM52.0003 52.9579C48.9847 52.9579 46.5316 50.5048 46.5316 47.4892C46.5316 44.4736 48.9847 42.0205 52.0003 42.0205C55.0159 42.0205 57.469 44.4736 57.469 47.4892C57.469 50.5048 55.0159 52.9579 52.0003 52.9579Z" fill="white"/>
<path d="M39.4482 42.0208C39.0168 42.0208 38.667 41.671 38.667 41.2395V38.1145C38.667 37.683 39.0168 37.3333 39.4482 37.3333H42.5732C43.0047 37.3333 43.3545 37.683 43.3545 38.1145C43.3545 38.546 43.0047 38.8958 42.5732 38.8958H40.2295V41.2395C40.2295 41.671 39.8797 42.0208 39.4482 42.0208Z" fill="white"/>
<path d="M64.5527 42.0208C64.1213 42.0208 63.7715 41.671 63.7715 41.2395V38.8958H61.4277C60.9963 38.8958 60.6465 38.546 60.6465 38.1145C60.6465 37.683 60.9963 37.3333 61.4277 37.3333H64.5527C64.9842 37.3333 65.334 37.683 65.334 38.1145V41.2395C65.334 41.671 64.9842 42.0208 64.5527 42.0208Z" fill="white"/>
<path d="M42.5742 57.6455H39.4492C39.0178 57.6455 38.668 57.2957 38.668 56.8643V53.7393C38.668 53.3078 39.0178 52.958 39.4492 52.958C39.8807 52.958 40.2305 53.3078 40.2305 53.7393V56.083H42.5742C43.0057 56.083 43.3555 56.4328 43.3555 56.8643C43.3555 57.2957 43.0057 57.6455 42.5742 57.6455Z" fill="white"/>
<path d="M64.5527 57.6455H61.4277C60.9963 57.6455 60.6465 57.2957 60.6465 56.8643C60.6465 56.4328 60.9963 56.083 61.4277 56.083H63.7715V53.7393C63.7715 53.3078 64.1213 52.958 64.5527 52.958C64.9842 52.958 65.334 53.3078 65.334 53.7393V56.8643C65.334 57.2957 64.9842 57.6455 64.5527 57.6455Z" fill="white"/>
<path d="M52 43.583C49.8463 43.583 48.0938 45.3356 48.0938 47.4892C48.0938 49.6428 49.8463 51.3954 52 51.3954C54.1536 51.3954 55.9062 49.6428 55.9062 47.4892C55.9062 45.3356 54.1536 43.583 52 43.583ZM52 49.8329C50.7078 49.8329 49.6562 48.7814 49.6562 47.4892C49.6562 46.197 50.7078 45.1455 52 45.1455C53.2921 45.1455 54.3437 46.197 54.3437 47.4892C54.3437 48.7814 53.2921 49.8329 52 49.8329Z" fill="white"/>
<path d="M52 48.2705C52.4315 48.2705 52.7812 47.9207 52.7812 47.4893C52.7812 47.0578 52.4315 46.708 52 46.708C51.5685 46.708 51.2188 47.0578 51.2188 47.4893C51.2188 47.9207 51.5685 48.2705 52 48.2705Z" fill="white"/>
</g>
<defs>
<filter id="filter0_d_196_4099" x="0" y="0" width="104" height="104" filterUnits="userSpaceOnUse" color-interpolation-filters="sRGB">
<feFlood flood-opacity="0" result="BackgroundImageFix"/>
<feColorMatrix in="SourceAlpha" type="matrix" values="0 0 0 0 0 0 0 0 0 0 0 0 0 0 0 0 0 0 127 0" result="hardAlpha"/>
<feOffset dy="4"/>
<feGaussianBlur stdDeviation="2"/>
<feComposite in2="hardAlpha" operator="out"/>
<feColorMatrix type="matrix" values="0 0 0 0 0 0 0 0 0 0 0 0 0 0 0 0 0 0 0.25 0"/>
<feBlend mode="normal" in2="BackgroundImageFix" result="effect1_dropShadow_196_4099"/>
<feBlend mode="normal" in="SourceGraphic" in2="effect1_dropShadow_196_4099" result="shape"/>
</filter>
</defs>
</svg>
