<svg width="24" height="24" viewBox="0 0 24 24" fill="none" xmlns="http://www.w3.org/2000/svg">
<path d="M21.889 11.2736C19.8159 8.40766 15.857 5.17175 12 5.17175C8.17582 5.17175 4.21804 8.36078 2.11103 11.2736C1.96299 11.4787 1.96299 11.7553 2.11103 11.9604C4.18406 14.8263 8.14301 18.0623 12 18.0623C15.8242 18.0623 19.782 14.8732 21.889 11.9604C22.037 11.7553 22.037 11.4787 21.889 11.2736ZM12 15.7185C9.7383 15.7185 7.89848 13.8787 7.89848 11.617C7.89848 9.35531 9.7383 7.51548 12 7.51548C14.2617 7.51548 16.1015 9.35531 16.1015 11.617C16.1015 13.8787 14.2617 15.7185 12 15.7185Z" fill="black"/>
<path d="M2.58594 7.51563C2.26234 7.51563 2 7.25328 2 6.92969V4.58594C2 4.26234 2.26234 4 2.58594 4H4.92969C5.25328 4 5.51562 4.26234 5.51562 4.58594C5.51562 4.90953 5.25328 5.17188 4.92969 5.17188H3.17188V6.92969C3.17188 7.25328 2.90953 7.51563 2.58594 7.51563Z" fill="black"/>
<path d="M21.4141 7.51563C21.0905 7.51563 20.8281 7.25328 20.8281 6.92969V5.17188H19.0703C18.7467 5.17188 18.4844 4.90953 18.4844 4.58594C18.4844 4.26234 18.7467 4 19.0703 4H21.4141C21.7377 4 22 4.26234 22 4.58594V6.92969C22 7.25328 21.7377 7.51563 21.4141 7.51563Z" fill="black"/>
<path d="M4.92969 19.2343H2.58594C2.26234 19.2343 2 18.9719 2 18.6483V16.3046C2 15.981 2.26234 15.7186 2.58594 15.7186C2.90953 15.7186 3.17188 15.981 3.17188 16.3046V18.0624H4.92969C5.25328 18.0624 5.51562 18.3247 5.51562 18.6483C5.51562 18.9719 5.25328 19.2343 4.92969 19.2343Z" fill="black"/>
<path d="M21.4141 19.2343H19.0703C18.7467 19.2343 18.4844 18.9719 18.4844 18.6483C18.4844 18.3247 18.7467 18.0624 19.0703 18.0624H20.8281V16.3046C20.8281 15.981 21.0905 15.7186 21.4141 15.7186C21.7377 15.7186 22 15.981 22 16.3046V18.6483C22 18.9719 21.7377 19.2343 21.4141 19.2343Z" fill="black"/>
<path d="M12 8.68732C10.3848 8.68732 9.07031 10.0018 9.07031 11.617C9.07031 13.2322 10.3848 14.5466 12 14.5466C13.6152 14.5466 14.9296 13.2322 14.9296 11.617C14.9296 10.0018 13.6152 8.68732 12 8.68732ZM12 13.3748C11.0308 13.3748 10.2422 12.5861 10.2422 11.617C10.2422 10.6478 11.0308 9.85918 12 9.85918C12.9691 9.85918 13.7578 10.6478 13.7578 11.617C13.7578 12.5861 12.9691 13.3748 12 13.3748Z" fill="black"/>
<path d="M12 12.2029C12.3236 12.2029 12.5859 11.9406 12.5859 11.617C12.5859 11.2934 12.3236 11.0311 12 11.0311C11.6764 11.0311 11.4141 11.2934 11.4141 11.617C11.4141 11.9406 11.6764 12.2029 12 12.2029Z" fill="black"/>
</svg>
