<svg width="24" height="24" viewBox="0 0 24 24" fill="none" xmlns="http://www.w3.org/2000/svg">
<path d="M21.9701 5.59243C21.9418 5.5203 21.8932 5.4585 21.8306 5.41494C21.768 5.37138 21.6942 5.34802 21.6186 5.34787H18.5031C18.1574 4.64989 17.6332 4.06235 16.9871 3.64861C16.341 3.23487 15.5975 3.01062 14.8367 3.00004C13.7215 2.99482 12.6496 3.44477 11.8557 4.25144C11.0618 5.05811 10.6104 6.15582 10.6004 7.30438V8.40003C6.41154 7.48047 2.92559 3.92939 2.8876 3.90004C2.83992 3.8478 2.77892 3.81044 2.71158 3.79226C2.64424 3.77408 2.57328 3.77581 2.50685 3.79726C2.44043 3.8187 2.38121 3.85899 2.33599 3.9135C2.29077 3.96802 2.26138 4.03455 2.2512 4.10548C1.43432 8.68373 2.76411 11.7457 4.02742 13.5065C4.7351 14.5071 5.61771 15.363 6.63 16.0304C5.13874 18.0261 2.51715 19.0533 2.48866 19.0728C2.43529 19.0934 2.38709 19.126 2.34762 19.1684C2.30816 19.2107 2.27845 19.2616 2.26069 19.3174C2.24268 19.3728 2.2376 19.4318 2.24585 19.4895C2.2541 19.5473 2.27546 19.6023 2.30819 19.65C2.32718 19.6891 2.57414 20.0413 3.21054 20.3739C4.01792 20.7848 5.10075 21 6.42104 21C12.9655 21 18.4366 15.7663 18.9211 9.06525L21.8846 6.01308C21.9394 5.96071 21.977 5.89212 21.9923 5.81677C22.0077 5.74142 21.9999 5.66303 21.9701 5.59243ZM18.2847 8.61525C18.2189 8.68366 18.1786 8.77368 18.1707 8.8696C17.7812 15.2381 12.6141 20.2174 6.42104 20.2174C4.7303 20.2174 3.79945 19.8359 3.33402 19.5424C4.32187 19.0728 6.32605 17.9478 7.49437 16.1283C7.52642 16.084 7.54821 16.0328 7.55809 15.9786C7.56797 15.9243 7.56567 15.8684 7.55136 15.8152C7.53678 15.761 7.51156 15.7105 7.47725 15.6667C7.44294 15.623 7.40027 15.587 7.35189 15.5609C7.33289 15.5511 5.89862 14.7978 4.63532 13.037C3.05857 10.8261 2.46966 8.11634 2.8876 4.95656C4.1034 6.06199 7.23791 8.62503 10.9138 9.25112C10.9685 9.26126 11.0246 9.25954 11.0786 9.24606C11.1326 9.23259 11.1832 9.20765 11.2273 9.17286C11.2692 9.13505 11.3028 9.08842 11.3257 9.0361C11.3487 8.98378 11.3605 8.927 11.3603 8.8696V7.30438C11.3703 6.36508 11.7403 5.46791 12.3896 4.80829C13.039 4.14866 13.9151 3.78001 14.8272 3.78265C15.4843 3.79319 16.1245 3.99795 16.6718 4.37256C17.2191 4.74717 17.6504 5.27586 17.9142 5.89569C17.943 5.96678 17.9919 6.02725 18.0546 6.06916C18.1174 6.11106 18.1909 6.13244 18.2657 6.13047H20.6973L18.2847 8.61525Z" fill="black"/>
</svg>
