<svg width="96" height="96" viewBox="0 0 96 96" fill="none" xmlns="http://www.w3.org/2000/svg">
<rect width="96" height="96" rx="48" fill="black"/>
<path d="M59.3892 41.3334H36.6114C35.5392 41.3334 34.667 40.4612 34.667 39.389V36.6112C34.667 35.539 35.5392 34.6667 36.6114 34.6667H59.3892C60.4614 34.6667 61.3337 35.539 61.3337 36.6112V39.389C61.3337 40.4612 60.4614 41.3334 59.3892 41.3334ZM36.6114 36.3334C36.4581 36.3334 36.3337 36.4579 36.3337 36.6112V39.389C36.3337 39.5423 36.4581 39.6667 36.6114 39.6667H59.3892C59.5425 39.6667 59.667 39.5423 59.667 39.389V36.6112C59.667 36.4579 59.5425 36.3334 59.3892 36.3334H36.6114Z" fill="white"/>
<path d="M59.389 61.3334H45.5001C44.4279 61.3334 43.5557 60.4612 43.5557 59.389V45.5001C43.5557 44.4279 44.4279 43.5557 45.5001 43.5557H59.389C60.4612 43.5557 61.3334 44.4279 61.3334 45.5001V59.389C61.3334 60.4612 60.4612 61.3334 59.389 61.3334ZM45.5001 45.2223C45.3468 45.2223 45.2223 45.3468 45.2223 45.5001V59.389C45.2223 59.5423 45.3468 59.6668 45.5001 59.6668H59.389C59.5423 59.6668 59.6668 59.5423 59.6668 59.389V45.5001C59.6668 45.3468 59.5423 45.2223 59.389 45.2223H45.5001Z" fill="white"/>
<path d="M38.0003 61.3334C36.1625 61.3334 34.667 59.8379 34.667 58.0001C34.667 56.1623 36.1625 54.6667 38.0003 54.6667C39.8381 54.6667 41.3337 56.1623 41.3337 58.0001C41.3337 59.8379 39.8381 61.3334 38.0003 61.3334ZM38.0003 56.3334C37.0814 56.3334 36.3337 57.0812 36.3337 58.0001C36.3337 58.919 37.0814 59.6667 38.0003 59.6667C38.9192 59.6667 39.667 58.919 39.667 58.0001C39.667 57.0812 38.9192 56.3334 38.0003 56.3334Z" fill="white"/>
<path d="M40.5003 49.1112H35.5003C35.0403 49.1112 34.667 48.7379 34.667 48.2779C34.667 47.8179 35.0403 47.4446 35.5003 47.4446H40.5003C40.9603 47.4446 41.3337 47.8179 41.3337 48.2779C41.3337 48.7379 40.9603 49.1112 40.5003 49.1112Z" fill="black"/>
<path d="M40.5003 45.7778H35.5003C35.0403 45.7778 34.667 45.4044 34.667 44.9444C34.667 44.4844 35.0403 44.1111 35.5003 44.1111H40.5003C40.9603 44.1111 41.3337 44.4844 41.3337 44.9444C41.3337 45.4044 40.9603 45.7778 40.5003 45.7778Z" fill="white"/>
<path d="M40.5003 52.4445H35.5003C35.0403 52.4445 34.667 52.0712 34.667 51.6112C34.667 51.1512 35.0403 50.7778 35.5003 50.7778H40.5003C40.9603 50.7778 41.3337 51.1512 41.3337 51.6112C41.3337 52.0712 40.9603 52.4445 40.5003 52.4445Z" fill="white"/>
</svg>
