<svg width="24" height="24" viewBox="0 0 24 24" fill="none" xmlns="http://www.w3.org/2000/svg">
<path d="M20.5417 7H3.45833C2.65417 7 2 6.34583 2 5.54167V3.45833C2 2.65417 2.65417 2 3.45833 2H20.5417C21.3458 2 22 2.65417 22 3.45833V5.54167C22 6.34583 21.3458 7 20.5417 7ZM3.45833 3.25C3.34333 3.25 3.25 3.34333 3.25 3.45833V5.54167C3.25 5.65667 3.34333 5.75 3.45833 5.75H20.5417C20.6567 5.75 20.75 5.65667 20.75 5.54167V3.45833C20.75 3.34333 20.6567 3.25 20.5417 3.25H3.45833Z" fill="black"/>
<path d="M20.541 22H10.1243C9.32018 22 8.66602 21.3459 8.66602 20.5417V10.125C8.66602 9.32085 9.32018 8.66669 10.1243 8.66669H20.541C21.3452 8.66669 21.9993 9.32085 21.9993 10.125V20.5417C21.9993 21.3459 21.3452 22 20.541 22ZM10.1243 9.91669C10.0093 9.91669 9.91602 10.01 9.91602 10.125V20.5417C9.91602 20.6567 10.0093 20.75 10.1243 20.75H20.541C20.656 20.75 20.7493 20.6567 20.7493 20.5417V10.125C20.7493 10.01 20.656 9.91669 20.541 9.91669H10.1243Z" fill="black"/>
<path d="M4.5 22C3.12167 22 2 20.8783 2 19.5C2 18.1217 3.12167 17 4.5 17C5.87833 17 7 18.1217 7 19.5C7 20.8783 5.87833 22 4.5 22ZM4.5 18.25C3.81083 18.25 3.25 18.8108 3.25 19.5C3.25 20.1892 3.81083 20.75 4.5 20.75C5.18917 20.75 5.75 20.1892 5.75 19.5C5.75 18.8108 5.18917 18.25 4.5 18.25Z" fill="black"/>
<path d="M6.375 12.8333H2.625C2.28 12.8333 2 12.5533 2 12.2083C2 11.8633 2.28 11.5833 2.625 11.5833H6.375C6.72 11.5833 7 11.8633 7 12.2083C7 12.5533 6.72 12.8333 6.375 12.8333Z" fill="black"/>
<path d="M6.375 10.3333H2.625C2.28 10.3333 2 10.0533 2 9.70831C2 9.36331 2.28 9.08331 2.625 9.08331H6.375C6.72 9.08331 7 9.36331 7 9.70831C7 10.0533 6.72 10.3333 6.375 10.3333Z" fill="black"/>
<path d="M6.375 15.3333H2.625C2.28 15.3333 2 15.0533 2 14.7083C2 14.3633 2.28 14.0833 2.625 14.0833H6.375C6.72 14.0833 7 14.3633 7 14.7083C7 15.0533 6.72 15.3333 6.375 15.3333Z" fill="black"/>
</svg>
