<svg width="37" height="36" viewBox="0 0 37 36" fill="none" xmlns="http://www.w3.org/2000/svg">
<path d="M32.834 8.72222C32.6631 7.90442 32.3284 7.15878 31.8634 6.55994C31.3983 5.96109 30.8193 5.53005 30.1843 5.30995C28.4488 4.4465 11.6354 4.02346 6.75742 5.33409C6.12228 5.55427 5.54321 5.98547 5.07818 6.58449C4.61315 7.18352 4.27848 7.92936 4.10768 8.74733C3.32393 13.1737 3.26469 22.7432 4.12718 27.269C4.29809 28.0868 4.63281 28.8325 5.09783 29.4313C5.56286 30.0302 6.14187 30.4612 6.77692 30.6813C10.2141 31.7003 26.555 31.8432 30.2038 30.6813C30.8388 30.4612 31.4178 30.0302 31.8829 29.4313C32.3479 28.8325 32.6826 28.0868 32.8535 27.269C33.689 22.4466 33.7483 13.4702 32.834 8.72222V8.72222Z" stroke="black" stroke-linecap="round" stroke-linejoin="round"/>
<path d="M26.6705 17.9882L11 9.90039V26.0761L26.6705 17.9882Z" stroke="black" stroke-linecap="round" stroke-linejoin="round"/>
</svg>
